<svg viewBox="0 0 240 180" xmlns="http://www.w3.org/2000/svg">
  <!-- Terminal base - middle tone -->
  <rect x="20" y="20" width="200" height="140" rx="16" fill="#8B0000"/>
  
  <!-- Bottom accent - lighter tone -->
  <path d="M20 120 L220 120 L220 160 Q220 160 204 160 L36 160 Q20 160 20 144 Z" fill="#A52A2A"/>
  
  <!-- Header - darkest tone -->
  <rect x="20" y="20" width="200" height="32" rx="16" fill="#4A0404"/>
  
  <!-- Window controls -->
  <circle cx="42" cy="36" r="5" fill="#f87171"/>
  <circle cx="62" cy="36" r="5" fill="#fbbf24"/>
  <circle cx="82" cy="36" r="5" fill="#34d399"/>

  <!-- Code lines -->
  <path d="M50 80 h140" stroke="#FFE4E1" stroke-width="3.5" stroke-linecap="round"/>
  <path d="M50 110 h100" stroke="#FFE4E1" stroke-width="3.5" stroke-linecap="round"/>
  <path d="M50 140 h120" stroke="#FFE4E1" stroke-width="3.5" stroke-linecap="round"/>

  <!-- Command prompts -->
  <path d="M42.24,83.54 A5,5 0 1,1 42.24,76.46" fill="none" stroke="#FFE4E1" stroke-width="2"/>
  <path d="M35,105 L40,110 L35,115" fill="none" stroke="#FFE4E1" stroke-width="2"/>
  <path d="M35,135 L40,140 L35,145" fill="none" stroke="#FFE4E1" stroke-width="2"/>  

  <!-- Interactive dots -->
  <circle cx="200" cy="80" r="4.5" fill="#FFE4E1"/>
  <circle cx="160" cy="110" r="4.5" fill="#FFE4E1"/>
  <circle cx="180" cy="140" r="4.5" fill="#FFE4E1"/>
</svg>