<?xml version="1.0" encoding="UTF-8"?>
<svg xmlns="http://www.w3.org/2000/svg" viewBox="0 0 1024 1024">
<path d="M0 0 C3.97 3.17 6.35 6.73 9.09 10.97 C10.24 12.69 11.39 14.41 12.53 16.13 C13.41 17.45 13.41 17.45 14.31 18.81 C17.15 23.05 20.09 27.23 23.03 31.41 C24.21 33.08 25.39 34.76 26.57 36.44 C27.15 37.28 27.73 38.11 28.34 38.96 C31.22 43.07 34.09 47.17 36.97 51.28 C37.54 52.10 38.11 52.91 38.70 53.76 C43.86 61.12 48.99 68.50 54.12 75.89 C58.53 82.23 62.96 88.57 67.41 94.91 C71.54 100.80 75.65 106.71 79.72 112.66 C84.47 119.59 89.31 126.47 94.17 133.33 C99.42 140.75 104.61 148.20 109.79 155.66 C115.38 163.72 120.99 171.77 126.66 179.78 C127.14 180.47 127.63 181.16 128.13 181.86 C130.17 184.76 132.22 187.64 134.28 190.52 C143.06 202.85 143.06 202.85 142.09 209.47 C140.05 213.13 138.59 215.14 135.09 217.47 C132.21 217.85 132.21 217.85 128.75 218.03 C126.88 218.14 126.88 218.14 124.97 218.26 C122.34 218.40 119.71 218.54 117.08 218.68 C115.21 218.79 115.21 218.79 113.31 218.91 C112.16 218.97 111.02 219.03 109.84 219.09 C106.95 219.20 106.95 219.20 105.09 221.47 C104.56 226.21 105.44 228.75 108.09 232.66 C108.73 233.60 109.36 234.54 110.01 235.51 C111.04 236.97 111.04 236.97 112.09 238.47 C113.15 240.00 113.15 240.00 114.23 241.55 C118.04 247.12 118.04 247.12 123.09 251.47 C123.79 253.12 124.46 254.79 125.09 256.47 C125.75 257.13 126.41 257.79 127.09 258.47 C128.16 260.10 129.21 261.74 130.24 263.40 C133.92 269.25 137.81 274.93 141.78 280.59 C142.48 281.59 143.18 282.60 143.90 283.63 C148.46 290.15 153.03 296.66 157.63 303.15 C160.40 307.05 163.13 310.96 165.84 314.89 C166.47 315.81 167.11 316.72 167.76 317.67 C169.00 319.46 170.23 321.25 171.46 323.05 C172.02 323.85 172.58 324.66 173.16 325.5 C173.65 326.21 174.15 326.93 174.66 327.67 C176.15 329.72 176.15 329.72 179.09 331.47 C179.09 332.13 179.09 332.79 179.09 333.47 C180.09 335.21 180.09 335.21 181.44 337.12 C182.22 338.24 182.22 338.24 183.00 339.38 C183.57 340.19 184.13 341.01 184.72 341.84 C185.30 342.68 185.88 343.53 186.48 344.39 C188.35 347.09 190.22 349.78 192.09 352.47 C192.70 353.34 193.30 354.20 193.92 355.10 C195.71 357.66 197.49 360.22 199.28 362.78 C199.86 363.61 200.44 364.45 201.04 365.31 C203.69 369.10 206.37 372.87 209.16 376.56 C209.63 377.18 210.10 377.81 210.58 378.45 C211.80 380.08 213.05 381.71 214.30 383.33 C216.56 387.28 216.88 389.94 217.09 394.47 C216.76 395.13 216.43 395.79 216.09 396.47 C224.15 396.22 230.10 395.56 237.09 391.47 C237.75 391.47 238.41 391.47 239.09 391.47 C239.76 390.13 240.43 388.80 241.09 387.47 C241.43 386.79 241.78 386.12 242.13 385.42 C244.72 380.01 245.71 375.46 246.09 369.47 C245.43 369.14 244.77 368.81 244.09 368.47 C244.09 367.48 244.09 366.49 244.09 365.47 C243.06 363.61 241.94 361.81 240.78 360.03 C240.17 359.08 239.55 358.14 238.92 357.16 C238.31 356.27 237.71 355.38 237.09 354.47 C236.58 353.71 236.07 352.96 235.55 352.18 C234.11 350.18 234.11 350.18 231.09 349.47 C231.01 348.46 231.01 348.46 230.92 347.44 C229.75 343.26 227.39 340.38 224.78 336.97 C224.29 336.32 223.81 335.67 223.31 335 C221.24 332.24 219.13 329.52 216.97 326.84 C214.97 324.31 213.17 321.73 211.41 319.03 C210.80 318.12 210.20 317.22 209.58 316.28 C207.94 313.18 207.23 310.98 207.09 307.47 C208.17 304.97 208.17 304.97 209.91 302.47 C210.88 301.04 210.88 301.04 211.87 299.59 C212.97 298.05 212.97 298.05 214.09 296.47 C214.90 295.32 215.70 294.18 216.51 293.03 C220.23 287.76 224.03 282.55 227.84 277.34 C232.83 270.50 237.66 263.54 242.51 256.59 C249.77 246.20 257.08 235.85 264.53 225.59 C269.03 219.39 273.41 213.12 277.72 206.78 C281.75 200.84 285.85 194.95 290.09 189.16 C290.74 188.27 290.74 188.27 291.40 187.36 C300.13 175.54 300.13 175.54 306.09 174.47 C311.39 174.66 315.14 175.98 319.09 179.47 C321.54 182.43 323.65 185.59 325.78 188.78 C327.02 190.60 328.27 192.42 329.51 194.24 C330.12 195.13 330.73 196.03 331.36 196.95 C333.70 200.34 336.13 203.66 338.59 206.97 C344.68 215.19 350.51 223.60 356.37 232.00 C359.03 235.81 361.72 239.61 364.41 243.41 C367.83 248.24 371.23 253.09 374.59 257.97 C381.25 267.60 388.00 277.17 394.84 286.68 C396.46 288.95 398.08 291.22 399.69 293.50 C400.71 294.94 401.74 296.37 402.77 297.79 C404.58 300.30 406.37 302.82 408.16 305.34 C408.73 306.13 409.30 306.91 409.89 307.72 C413.40 312.73 415.05 316.30 415.09 322.47 C413.05 326.56 411.32 328.79 407.09 330.47 C404.73 330.77 404.73 330.77 402.14 330.85 C401.21 330.88 400.28 330.91 399.33 330.95 C398.36 330.98 397.40 331.00 396.41 331.03 C394.48 331.09 392.56 331.15 390.64 331.22 C389.79 331.25 388.95 331.27 388.07 331.29 C386.09 331.25 386.09 331.25 385.09 332.47 C385.32 338.74 387.58 342.29 391.28 347.22 C391.81 347.95 392.34 348.68 392.89 349.43 C394.61 351.79 396.35 354.13 398.09 356.47 C399.26 358.05 400.42 359.62 401.58 361.20 C403.34 363.59 405.11 365.99 406.87 368.37 C412.24 375.63 417.45 382.99 422.62 390.37 C425.11 393.91 427.60 397.44 430.09 400.97 C431.09 402.38 432.09 403.80 433.09 405.22 C433.59 405.92 434.08 406.62 434.59 407.34 C436.09 409.47 437.59 411.59 439.09 413.72 C439.84 414.77 439.84 414.77 440.60 415.85 C441.59 417.25 442.58 418.66 443.57 420.06 C446.20 423.79 448.84 427.52 451.48 431.25 C452.03 432.02 452.58 432.80 453.15 433.61 C454.22 435.11 455.28 436.61 456.35 438.11 C456.82 438.79 457.30 439.46 457.79 440.15 C458.21 440.74 458.63 441.34 459.07 441.95 C461.75 445.93 461.54 449.80 461.09 454.47 C459.35 458.68 457.28 460.69 453.09 462.47 C446.16 463.57 439.14 463.63 432.14 463.67 C431.09 463.68 430.04 463.69 428.97 463.70 C425.55 463.73 422.13 463.76 418.71 463.78 C416.33 463.80 413.94 463.83 411.56 463.85 C405.31 463.90 399.06 463.95 392.80 464.00 C386.42 464.05 380.03 464.11 373.64 464.16 C361.12 464.27 348.61 464.37 336.09 464.47 C336.09 464.80 336.09 465.13 336.09 465.47 C334.11 465.47 332.13 465.47 330.09 465.47 C330.04 475.13 330.03 484.78 330.07 494.44 C330.09 498.93 330.09 503.41 330.06 507.90 C330.03 512.23 330.04 516.56 330.08 520.89 C330.09 522.54 330.08 524.19 330.06 525.84 C329.68 534.85 329.68 534.85 332.84 542.98 C334.84 544.73 336.83 546.08 339.09 547.47 C346.64 554.76 349.93 564.25 350.16 574.57 C349.70 585.90 346.18 595.29 338.26 603.50 C329.26 611.67 320.08 614.74 308.09 615.47 C308.42 616.13 308.75 616.79 309.09 617.47 C306.45 617.47 303.81 617.47 301.09 617.47 C301.42 616.15 301.75 614.83 302.09 613.47 C301.14 613.41 300.20 613.34 299.22 613.28 C293.16 612.43 287.25 609.19 282.52 605.42 C278.31 604.25 277.46 604.91 273.67 606.89 C271.55 608.12 269.44 609.38 267.34 610.66 C265.11 611.98 262.87 613.30 260.63 614.62 C259.53 615.27 258.43 615.93 257.29 616.61 C254.42 618.28 251.52 619.83 248.55 621.32 C247.73 621.74 246.91 622.16 246.06 622.60 C244.54 623.36 243.02 624.11 241.49 624.83 C237.44 626.93 235.71 628.56 234.25 632.94 C233.85 634.45 233.47 635.96 233.09 637.47 C229.90 645.50 225.23 653.06 217.16 656.84 C214.86 658.28 214.86 658.28 214.67 660.81 C214.60 661.72 214.53 662.63 214.46 663.57 C214.39 664.48 214.32 665.40 214.24 666.34 C214.19 667.04 214.14 667.74 214.09 668.47 C214.80 668.46 215.50 668.45 216.22 668.45 C233.35 668.28 250.48 668.12 267.61 667.97 C275.89 667.90 284.17 667.83 292.45 667.74 C299.68 667.67 306.90 667.61 314.12 667.55 C317.94 667.52 321.76 667.48 325.58 667.44 C329.19 667.40 332.79 667.37 336.39 667.35 C338.33 667.33 340.27 667.31 342.22 667.28 C357.64 667.21 357.64 667.21 363.25 670.88 C366.45 674.81 368.09 678.14 368.32 683.26 C367.94 686.96 366.62 689.75 364.09 692.47 C359.79 695.76 356.91 697.00 351.51 697.21 C350.83 697.24 350.16 697.27 349.46 697.30 C338.15 697.70 326.81 697.61 315.50 697.60 C311.87 697.59 308.25 697.60 304.63 697.60 C298.29 697.60 291.95 697.60 285.62 697.60 C276.19 697.60 266.77 697.60 257.35 697.60 C240.51 697.61 223.68 697.61 206.85 697.60 C192.12 697.60 177.40 697.60 162.67 697.60 C161.69 697.60 160.72 697.60 159.71 697.60 C155.74 697.60 151.77 697.60 147.80 697.60 C110.60 697.61 73.39 697.60 36.19 697.60 C3.14 697.59 -29.91 697.59 -62.96 697.60 C-100.11 697.60 -137.25 697.61 -174.40 697.60 C-178.36 697.60 -182.32 697.60 -186.28 697.60 C-187.25 697.60 -188.23 697.60 -189.23 697.60 C-203.95 697.60 -218.67 697.60 -233.40 697.60 C-250.13 697.61 -266.86 697.61 -283.60 697.60 C-292.96 697.60 -302.33 697.60 -311.69 697.60 C-317.95 697.60 -324.20 697.60 -330.46 697.60 C-334.02 697.60 -337.58 697.59 -341.15 697.60 C-344.99 697.60 -348.83 697.60 -352.67 697.59 C-353.77 697.60 -354.88 697.60 -356.01 697.60 C-375.42 697.55 -375.42 697.55 -380.90 692.47 C-383.65 688.63 -384.90 685.60 -384.90 680.84 C-383.53 676.24 -381.47 673.04 -378.08 669.66 C-373.38 667.10 -367.68 667.34 -362.44 667.35 C-361.18 667.35 -359.93 667.34 -358.63 667.34 C-357.26 667.35 -355.89 667.35 -354.52 667.35 C-353.06 667.35 -351.60 667.35 -350.14 667.35 C-346.19 667.35 -342.25 667.36 -338.30 667.37 C-334.17 667.37 -330.04 667.37 -325.91 667.37 C-318.10 667.38 -310.29 667.39 -302.48 667.40 C-293.58 667.41 -284.68 667.41 -275.78 667.42 C-257.49 667.43 -239.19 667.45 -220.90 667.47 C-221.07 666.72 -221.25 665.97 -221.42 665.21 C-222.02 661.77 -221.50 658.88 -220.90 655.47 C-221.70 655.28 -222.51 655.10 -223.33 654.91 C-232.24 651.31 -240.49 643.56 -244.83 634.97 C-245.19 634.14 -245.54 633.32 -245.90 632.47 C-246.56 632.80 -247.22 633.13 -247.90 633.47 C-248.88 627.78 -249.02 622.29 -248.96 616.53 C-248.96 615.66 -248.95 614.78 -248.95 613.88 C-248.93 611.74 -248.92 609.61 -248.90 607.47 C-249.61 607.20 -250.31 606.93 -251.04 606.66 C-254.02 605.42 -256.77 603.97 -259.58 602.41 C-263.21 600.39 -263.21 600.39 -266.90 598.47 C-267.64 597.85 -268.38 597.23 -269.15 596.59 C-272.81 593.76 -276.52 591.93 -280.90 590.47 C-281.90 589.47 -282.90 588.47 -283.90 587.47 C-287.57 584.96 -287.57 584.96 -291.90 584.47 C-293.61 586.09 -295.27 587.76 -296.90 589.47 C-306.99 598.69 -318.59 600.80 -331.77 600.53 C-333.83 600.50 -335.89 600.47 -337.95 600.44 C-338.85 600.42 -339.76 600.40 -340.69 600.39 C-342.94 600.32 -342.94 600.32 -344.90 601.47 C-344.90 600.15 -344.90 598.83 -344.90 597.47 C-346.57 596.76 -346.57 596.76 -348.27 596.03 C-360.29 589.98 -367.96 579.55 -372.15 567.03 C-375.87 554.23 -373.64 541.57 -367.42 529.93 C-360.17 518.22 -360.17 518.22 -353.90 515.47 C-351.15 514.32 -351.15 514.32 -348.90 512.47 C-348.07 509.67 -348.07 509.67 -348.08 506.41 C-348.04 505.17 -347.99 503.94 -347.94 502.67 C-347.86 497.22 -347.85 491.78 -347.93 486.33 C-348.00 480.67 -348.00 480.67 -346.90 478.47 C-347.56 478.14 -348.22 477.81 -348.90 477.47 C-348.64 475.51 -348.38 473.56 -348.12 471.61 C-347.83 469.16 -347.83 469.16 -347.90 465.47 C-350.25 464.29 -351.64 464.35 -354.25 464.37 C-355.53 464.37 -355.53 464.37 -356.83 464.38 C-357.72 464.39 -358.61 464.40 -359.52 464.41 C-360.87 464.41 -360.87 464.41 -362.24 464.42 C-364.46 464.43 -366.68 464.45 -368.90 464.47 C-368.90 464.80 -368.90 465.13 -368.90 465.47 C-371.54 465.47 -374.18 465.47 -376.90 465.47 C-376.90 465.14 -376.90 464.81 -376.90 464.47 C-378.52 464.46 -378.52 464.46 -380.18 464.44 C-390.42 464.37 -400.66 464.28 -410.90 464.18 C-416.17 464.13 -421.43 464.08 -426.70 464.05 C-431.78 464.01 -436.86 463.96 -441.95 463.91 C-443.88 463.89 -445.82 463.88 -447.75 463.86 C-450.47 463.85 -453.19 463.82 -455.91 463.79 C-457.10 463.78 -457.10 463.78 -458.32 463.78 C-464.88 463.68 -470.61 462.91 -476.27 459.34 C-479.50 455.81 -481.00 453.30 -480.90 448.47 C-478.45 439.04 -470.29 430.51 -464.60 422.80 C-461.99 419.22 -459.44 415.60 -456.90 411.97 C-451.18 403.84 -445.37 395.78 -439.54 387.73 C-436.82 383.98 -434.11 380.22 -431.40 376.47 C-430.32 374.98 -429.24 373.49 -428.17 372 C-425.93 368.90 -423.70 365.81 -421.47 362.72 C-420.91 361.94 -420.35 361.16 -419.77 360.36 C-418.66 358.83 -417.55 357.29 -416.45 355.75 C-414.11 352.49 -411.76 349.26 -409.27 346.10 C-408.53 345.15 -407.79 344.20 -407.02 343.22 C-406.39 342.43 -405.75 341.64 -405.09 340.83 C-403.50 337.67 -403.98 335.81 -404.90 332.47 C-406.53 330.84 -408.39 331.34 -410.63 331.33 C-411.60 331.31 -412.57 331.29 -413.56 331.27 C-415.60 331.23 -417.64 331.22 -419.69 331.21 C-427.14 331.03 -427.14 331.03 -431.02 328.18 C-433.80 324.16 -434.61 321.33 -433.90 316.47 C-432.12 312.43 -429.51 309.00 -426.90 305.47 C-425.93 304.11 -424.96 302.76 -423.99 301.40 C-421.22 297.52 -418.42 293.67 -415.61 289.82 C-406.49 277.32 -397.52 264.71 -388.67 252.01 C-385.71 247.77 -382.74 243.52 -379.77 239.28 C-379.19 238.45 -378.61 237.62 -378.01 236.76 C-372.81 229.34 -367.59 221.94 -362.36 214.54 C-360.39 211.74 -358.42 208.95 -356.45 206.15 C-354.97 204.04 -353.47 201.94 -351.98 199.84 C-349.79 196.75 -347.65 193.64 -345.53 190.50 C-344.41 188.87 -343.28 187.23 -342.15 185.59 C-341.64 184.83 -341.13 184.06 -340.61 183.27 C-337.12 178.26 -333.98 175.63 -327.90 174.47 C-323.42 174.41 -319.89 175.72 -316.33 178.41 C-311.81 184.09 -307.52 189.95 -303.52 196.03 C-301.98 198.51 -301.98 198.51 -299.90 200.47 C-298.90 202.02 -297.92 203.58 -296.96 205.16 C-294.09 209.72 -291.05 214.08 -287.83 218.41 C-283.46 224.29 -279.21 230.26 -275.02 236.28 C-270.52 242.74 -265.97 249.16 -261.33 255.53 C-256.89 261.64 -252.57 267.83 -248.33 274.09 C-243.69 280.95 -238.88 287.64 -233.85 294.22 C-232.52 295.96 -231.21 297.71 -229.90 299.47 C-229.13 300.48 -228.35 301.50 -227.56 302.54 C-225.64 305.93 -225.35 307.64 -225.90 311.47 C-227.01 313.90 -227.01 313.90 -228.65 316.34 C-229.27 317.28 -229.90 318.22 -230.55 319.19 C-232.30 321.68 -234.13 324.09 -236.00 326.49 C-236.54 327.19 -237.08 327.89 -237.63 328.61 C-238.71 329.99 -239.79 331.36 -240.90 332.72 C-244.14 336.86 -246.19 340.00 -245.90 345.47 C-244.47 348.49 -242.56 351.02 -240.52 353.66 C-239.70 354.76 -239.70 354.76 -238.87 355.89 C-237.23 358.09 -235.57 360.28 -233.90 362.47 C-232.96 363.72 -232.03 364.98 -231.09 366.24 C-229.05 369.00 -226.98 371.74 -224.90 374.47 C-224.54 373.88 -224.19 373.30 -223.82 372.69 C-219.00 364.91 -213.68 357.55 -208.29 350.15 C-205.12 345.78 -202.00 341.38 -198.90 336.97 C-194.06 330.08 -189.14 323.24 -184.17 316.44 C-181.13 312.26 -178.22 308.11 -175.90 303.47 C-174.57 301.80 -173.24 300.13 -171.90 298.47 C-169.96 295.92 -168.05 293.35 -166.15 290.78 C-165.64 290.10 -165.13 289.43 -164.61 288.73 C-164.13 288.08 -163.66 287.44 -163.16 286.77 C-162.73 286.18 -162.29 285.60 -161.84 284.99 C-160.72 283.48 -160.72 283.48 -160.90 281.47 C-159.73 280.31 -158.56 279.15 -157.38 278.01 C-154.56 275.08 -152.31 271.71 -149.96 268.41 C-149.40 267.63 -148.85 266.85 -148.27 266.05 C-142.31 257.69 -136.41 249.30 -130.57 240.85 C-129.39 239.17 -128.19 237.51 -126.96 235.86 C-126.33 235.00 -125.70 234.14 -125.05 233.25 C-124.18 232.09 -124.18 232.09 -123.29 230.91 C-121.64 228.02 -121.10 225.78 -120.90 222.47 C-121.56 221.48 -122.22 220.49 -122.90 219.47 C-128.46 218.43 -133.81 218.46 -139.46 218.53 C-152.31 218.57 -152.31 218.57 -156.45 215.21 C-159.53 211.89 -160.90 208.96 -160.90 204.47 C-159.00 198.34 -156.37 193.96 -152.40 188.97 C-151.31 187.56 -150.23 186.15 -149.15 184.75 C-148.33 183.68 -148.33 183.68 -147.5 182.59 C-145.03 179.31 -142.71 175.93 -140.40 172.53 C-136.63 167.00 -132.83 161.49 -128.96 156.03 C-128.21 154.98 -128.21 154.98 -127.45 153.90 C-126.45 152.48 -125.44 151.05 -124.43 149.63 C-117.66 140.08 -110.91 130.52 -104.27 120.88 C-102.44 118.24 -100.58 115.61 -98.71 112.99 C-98.16 112.22 -97.61 111.45 -97.05 110.66 C-95.97 109.14 -94.88 107.63 -93.79 106.11 C-93.30 105.42 -92.81 104.73 -92.30 104.02 C-91.86 103.41 -91.42 102.79 -90.97 102.16 C-89.72 100.34 -89.72 100.34 -88.90 97.47 C-87.57 96.13 -86.24 94.79 -84.90 93.47 C-83.52 91.60 -82.20 89.70 -80.90 87.78 C-80.10 86.61 -79.30 85.44 -78.50 84.27 C-78.08 83.65 -77.66 83.03 -77.22 82.40 C-74.92 79.04 -72.56 75.73 -70.21 72.41 C-64.01 63.64 -57.85 54.84 -51.69 46.03 C-49.89 43.46 -48.09 40.89 -46.28 38.32 C-45.09 36.62 -43.90 34.92 -42.71 33.22 C-42.13 32.39 -41.55 31.57 -40.95 30.72 C-38.21 26.79 -35.48 22.86 -32.78 18.90 C-32.05 17.82 -32.05 17.82 -31.30 16.72 C-30.41 15.40 -29.51 14.08 -28.62 12.75 C-21.54 2.32 -13.29 -6.99 0 0 Z M-18.65 169.16 C-22.50 176.29 -21.03 186.38 -21.01 194.24 C-21.01 195.73 -21.01 197.21 -21.01 198.70 C-21.01 202.73 -21.01 206.75 -21.00 210.77 C-20.99 214.98 -20.99 219.19 -20.99 223.40 C-20.99 231.37 -20.98 239.33 -20.97 247.30 C-20.96 256.37 -20.95 265.44 -20.95 274.51 C-20.94 293.16 -20.92 311.82 -20.90 330.47 C-25.25 328.39 -28.87 325.53 -32.65 322.57 C-35.45 320.20 -35.45 320.20 -38.90 319.47 C-40.58 317.82 -42.25 316.15 -43.90 314.47 C-45.60 313.10 -47.33 311.77 -49.08 310.47 C-50.13 309.70 -51.17 308.93 -52.24 308.14 C-53.46 307.25 -54.68 306.36 -55.90 305.47 C-56.97 304.68 -56.97 304.68 -58.07 303.88 C-60.40 302.18 -62.74 300.48 -65.08 298.78 C-65.82 298.25 -66.56 297.71 -67.31 297.16 C-69.50 295.58 -71.69 294.02 -73.90 292.47 C-74.70 291.90 -75.50 291.34 -76.32 290.76 C-77.11 290.21 -77.90 289.67 -78.71 289.11 C-79.43 288.61 -80.14 288.12 -80.87 287.61 C-84.03 285.83 -86.38 285.86 -89.90 286.47 C-93.06 287.80 -94.48 288.79 -96.27 291.72 C-97.11 295.38 -96.87 297.83 -95.90 301.47 C-91.89 306.02 -87.07 309.59 -82.27 313.28 C-81.46 313.90 -80.66 314.53 -79.83 315.17 C-73.30 320.19 -66.68 325.06 -59.98 329.84 C-57.76 331.42 -55.55 333.00 -53.33 334.59 C-52.57 335.14 -51.81 335.68 -51.03 336.24 C-44.48 340.97 -38.12 345.91 -31.82 350.97 C-31.12 351.53 -30.42 352.09 -29.69 352.67 C-29.08 353.16 -28.46 353.65 -27.83 354.16 C-25.51 355.83 -25.51 355.83 -20.90 357.47 C-20.90 392.45 -20.90 427.43 -20.90 463.47 C-13.97 463.47 -7.04 463.47 0.09 463.47 C0.09 461.49 0.09 459.51 0.09 457.47 C1.08 458.95 1.08 458.95 2.09 460.47 C2.09 459.58 2.09 458.70 2.09 457.78 C2.09 286.92 2.09 286.92 4.09 283.47 C5.77 281.96 5.77 281.96 7.74 280.57 C8.46 280.06 9.17 279.55 9.91 279.02 C10.63 278.51 11.35 277.99 12.09 277.47 C13.36 276.53 14.62 275.59 15.88 274.64 C16.82 273.95 16.82 273.95 17.77 273.23 C24.16 268.46 30.48 263.63 36.73 258.68 C41.32 255.06 45.95 251.51 50.59 247.97 C64.96 237.05 64.96 237.05 78.91 225.59 C80.09 224.58 80.09 224.58 81.30 223.54 C83.39 221.13 83.84 219.62 84.09 216.47 C83.12 213.08 82.03 210.49 79.09 208.47 C74.88 207.23 72.62 207.28 68.47 208.78 C62.90 211.91 57.98 216.03 52.99 219.98 C49.55 222.68 46.07 225.32 42.59 227.97 C41.14 229.08 39.69 230.19 38.24 231.30 C35.66 233.27 33.09 235.24 30.51 237.20 C24.52 241.78 18.62 246.44 12.82 251.26 C9.32 254.09 5.71 256.78 2.09 259.47 C2.09 237.45 2.09 237.45 2.14 231.47 C2.19 225.05 2.22 218.64 2.25 212.22 C2.26 208.33 2.28 204.45 2.32 200.56 C2.35 196.81 2.37 193.05 2.38 189.29 C2.38 187.86 2.39 186.43 2.41 185.00 C2.43 183.00 2.43 180.99 2.43 178.99 C2.44 177.85 2.45 176.71 2.45 175.53 C2.05 172.09 1.13 170.24 -0.90 167.47 C-3.66 165.31 -5.41 164.53 -8.90 164.09 C-13.16 164.63 -15.59 166.21 -18.65 169.16 Z M-334.90 313.47 C-337.31 317.03 -337.20 320.65 -337.22 324.81 C-337.23 325.90 -337.23 325.90 -337.25 327.03 C-337.28 329.44 -337.29 331.85 -337.31 334.26 C-337.33 335.94 -337.35 337.62 -337.37 339.29 C-337.42 343.70 -337.46 348.10 -337.50 352.51 C-337.54 357.01 -337.59 361.51 -337.64 366.00 C-337.74 374.82 -337.82 383.65 -337.90 392.47 C-338.23 392.47 -338.56 392.47 -338.90 392.47 C-339.39 391.77 -339.88 391.08 -340.39 390.36 C-343.77 386.46 -347.73 383.97 -352.02 381.16 C-358.21 377.02 -364.20 372.86 -369.89 368.05 C-374.39 364.50 -378.08 362.68 -383.90 362.47 C-386.82 363.83 -388.62 365.20 -390.90 367.47 C-391.85 371.27 -392.19 373.66 -390.83 377.37 C-388.43 381.21 -385.77 383.19 -382.08 385.72 C-381.42 386.19 -380.75 386.66 -380.07 387.15 C-378.69 388.12 -377.31 389.09 -375.92 390.06 C-373.47 391.77 -371.03 393.51 -368.60 395.25 C-367.46 396.06 -366.33 396.87 -365.18 397.69 C-360.13 401.28 -355.13 404.95 -350.13 408.63 C-349.55 409.05 -348.97 409.48 -348.37 409.92 C-347.87 410.30 -347.36 410.67 -346.85 411.05 C-344.99 412.46 -344.99 412.46 -343.21 413.39 C-338.30 416.30 -338.30 416.30 -337.24 419.38 C-337.00 421.74 -336.97 424.01 -337.01 426.39 C-337.00 427.28 -336.99 428.17 -336.98 429.08 C-336.95 432.01 -336.97 434.93 -337 437.86 C-336.99 439.90 -336.97 441.93 -336.96 443.96 C-336.93 449.31 -336.93 454.65 -336.95 460.00 C-336.96 465.45 -336.94 470.91 -336.91 476.36 C-336.87 487.07 -336.87 497.77 -336.90 508.47 C-335.81 508.46 -334.73 508.44 -333.61 508.43 C-332.16 508.42 -330.72 508.41 -329.27 508.41 C-328.56 508.40 -327.85 508.39 -327.11 508.38 C-326.41 508.38 -325.71 508.37 -324.98 508.37 C-324.34 508.36 -323.71 508.36 -323.05 508.35 C-320.28 508.50 -317.62 508.98 -314.90 509.47 C-314.85 484.95 -314.82 460.42 -314.79 435.90 C-314.78 424.52 -314.77 413.13 -314.75 401.75 C-314.73 391.82 -314.71 381.90 -314.71 371.97 C-314.71 366.72 -314.70 361.46 -314.69 356.21 C-314.67 351.26 -314.67 346.32 -314.67 341.37 C-314.67 339.55 -314.67 337.74 -314.66 335.93 C-314.65 333.45 -314.65 330.97 -314.66 328.48 C-314.65 327.41 -314.65 327.41 -314.64 326.32 C-314.67 321.11 -315.00 315.66 -318.52 311.59 C-325.07 308.49 -329.44 308.66 -334.90 313.47 Z M299.09 312.47 C296.20 317.85 295.66 322.20 295.73 328.24 C295.72 329.10 295.72 329.96 295.72 330.85 C295.71 333.71 295.72 336.58 295.74 339.44 C295.74 341.50 295.73 343.56 295.73 345.63 C295.72 351.21 295.74 356.80 295.76 362.38 C295.77 368.23 295.77 374.08 295.77 379.93 C295.77 389.75 295.79 399.57 295.81 409.39 C295.84 421.99 295.85 434.59 295.86 447.20 C295.86 458.03 295.87 468.87 295.89 479.71 C295.89 483.19 295.89 486.67 295.90 490.16 C295.90 495.63 295.91 501.10 295.92 506.57 C295.93 508.58 295.93 510.59 295.93 512.60 C295.93 515.34 295.94 518.08 295.95 520.82 C295.95 521.62 295.95 522.41 295.95 523.23 C295.97 527.42 296.27 531.34 297.09 535.47 C297.92 535.38 298.74 535.30 299.58 535.21 C301.26 535.06 301.26 535.06 302.97 534.91 C304.06 534.80 305.15 534.70 306.27 534.59 C309.41 534.49 312.23 534.63 315.33 534.96 C316.23 535.05 317.12 535.15 318.04 535.24 C318.72 535.32 319.39 535.39 320.09 535.47 C320.09 534.74 320.09 534.02 320.09 533.27 C320.07 515.67 320.05 498.07 320.04 480.47 C320.04 471.96 320.03 463.45 320.02 454.94 C320.01 447.52 320.00 440.10 320.00 432.68 C320.00 428.75 319.99 424.83 319.99 420.90 C319.98 417.20 319.98 413.51 319.98 409.81 C319.98 407.80 319.97 405.80 319.97 403.79 C319.97 402.60 319.97 401.41 319.97 400.18 C319.97 399.14 319.97 398.11 319.97 397.04 C320.09 394.47 320.09 394.47 321.09 391.47 C322.41 390.76 323.75 390.11 325.09 389.47 C326.77 388.17 328.41 386.83 330.03 385.47 C334.05 382.13 338.12 378.89 342.28 375.72 C347.49 371.73 352.66 367.69 357.78 363.59 C358.48 363.05 359.17 362.50 359.89 361.93 C360.54 361.41 361.19 360.89 361.85 360.35 C362.43 359.89 363.01 359.43 363.60 358.96 C366.13 356.43 367.00 354.09 367.53 350.59 C366.91 346.17 365.43 344.39 362.09 341.47 C355.80 340.55 352.68 341.84 347.65 345.58 C346.54 346.45 346.54 346.45 345.41 347.34 C344.63 347.93 343.85 348.52 343.05 349.12 C340.72 350.88 338.40 352.67 336.09 354.47 C334.76 355.48 333.44 356.48 332.10 357.49 C326.39 361.73 326.39 361.73 321.09 366.47 C320.29 359.42 320.02 352.46 320.10 345.38 C320.11 344.58 320.12 343.78 320.12 342.96 C320.16 339.64 320.20 336.31 320.26 332.99 C320.31 330.54 320.33 328.08 320.35 325.63 C320.37 324.88 320.39 324.14 320.41 323.37 C320.43 318.87 319.90 316.03 317.09 312.47 C310.80 308.41 305.33 308.17 299.09 312.47 Z M-204.90 399.47 C-202.59 403.36 -200.11 407.06 -197.46 410.72 C-196.57 411.96 -195.68 413.20 -194.79 414.44 C-194.09 415.41 -194.09 415.41 -193.37 416.41 C-174.26 443.03 -174.26 443.03 -173.33 449.22 C-174.25 454.48 -175.45 457.40 -179.81 460.62 C-184.77 463.31 -189.76 462.98 -195.28 462.89 C-196.40 462.89 -197.53 462.88 -198.69 462.88 C-202.40 462.87 -206.11 462.83 -209.82 462.79 C-212.40 462.78 -214.98 462.76 -217.56 462.76 C-223.65 462.73 -229.75 462.69 -235.84 462.64 C-247.41 462.55 -258.97 462.48 -270.54 462.43 C-274.34 462.41 -278.14 462.38 -281.94 462.34 C-284.26 462.33 -286.58 462.32 -288.91 462.30 C-289.97 462.29 -291.02 462.28 -292.12 462.26 C-293.09 462.26 -294.06 462.26 -295.06 462.25 C-296.32 462.24 -296.32 462.24 -297.61 462.23 C-300.19 462.50 -301.76 462.99 -303.90 464.47 C-305.51 472.11 -305.05 480.11 -304.91 487.89 C-304.90 490.72 -304.98 493.54 -305.06 496.37 C-305.55 507.06 -305.55 507.06 -301.63 516.58 C-298.81 518.82 -298.81 518.82 -295.76 520.65 C-288.14 525.48 -283.91 534.91 -281.90 543.47 C-281.90 544.59 -281.91 545.70 -281.92 546.85 C-281.89 551.03 -281.64 553.64 -279.90 557.47 C-274.81 562.06 -268.53 565.10 -262.45 568.17 C-255.95 571.47 -249.65 575.16 -243.33 578.78 C-242.71 579.14 -242.08 579.50 -241.43 579.87 C-239.92 580.73 -238.41 581.60 -236.90 582.47 C-236.46 582.03 -236.02 581.60 -235.57 581.15 C-224.42 570.68 -213.41 567.96 -198.68 568.19 C-187.99 568.61 -178.24 573.73 -170.90 581.47 C-166.32 579.80 -162.19 577.53 -157.96 575.16 C-157.18 574.72 -156.40 574.29 -155.60 573.84 C-146.46 568.71 -137.46 563.34 -128.45 557.99 C-124.88 555.86 -121.30 553.76 -117.71 551.66 C-112.69 548.71 -107.69 545.75 -102.69 542.78 C-101.57 542.12 -100.46 541.46 -99.31 540.78 C-97.00 539.41 -94.69 538.03 -92.38 536.66 C-86.56 533.21 -80.73 529.79 -74.86 526.43 C-73.75 525.80 -72.64 525.16 -71.50 524.50 C-69.39 523.29 -67.27 522.09 -65.15 520.90 C-64.21 520.36 -63.27 519.82 -62.30 519.26 C-61.47 518.79 -60.64 518.32 -59.79 517.84 C-57.59 516.53 -57.59 516.53 -56.90 513.47 C-56.77 511.47 -56.67 509.47 -56.58 507.47 C-55.87 497.55 -52.53 489.56 -46.90 481.47 C-46.47 480.82 -46.05 480.16 -45.61 479.49 C-43.35 476.12 -41.70 473.92 -37.90 472.47 C-36.64 471.77 -35.39 471.06 -34.15 470.34 C-33.07 469.72 -32.00 469.11 -30.90 468.47 C-30.90 467.40 -30.90 466.33 -30.90 465.22 C-30.90 444.97 -30.90 424.72 -30.90 404.47 C-31.21 402.80 -31.54 401.13 -31.90 399.47 C-32.55 399.47 -33.20 399.47 -33.86 399.47 C-90.88 399.47 -147.89 399.47 -204.90 399.47 Z M14.09 399.47 C12.71 402.24 12.97 404.47 12.98 407.57 C12.98 408.85 12.98 410.13 12.98 411.45 C12.98 412.86 12.99 414.26 13 415.66 C13.00 417.10 13.00 418.53 13.00 419.96 C13.00 423.73 13.01 427.50 13.02 431.27 C13.03 435.12 13.04 438.97 13.04 442.82 C13.05 450.37 13.07 457.92 13.09 465.47 C14.08 465.47 15.07 465.47 16.09 465.47 C16.09 466.13 16.09 466.79 16.09 467.47 C15.10 467.96 15.10 467.96 14.09 468.47 C14.83 468.89 15.56 469.31 16.32 469.75 C27.76 476.85 33.62 486.36 37.38 499.08 C38.33 503.58 38.35 507.92 38.14 512.5 C39.72 517.40 43.78 518.99 48.09 521.47 C49.46 522.29 49.46 522.29 50.86 523.12 C53.82 524.89 56.80 526.62 59.78 528.34 C60.85 528.96 61.91 529.58 63.01 530.22 C68.44 533.37 73.88 536.49 79.34 539.59 C85.51 543.10 91.58 546.75 97.66 550.42 C106.47 555.72 115.34 560.91 124.22 566.10 C125.45 566.82 126.69 567.55 127.93 568.27 C128.54 568.63 129.15 568.98 129.77 569.35 C135.54 572.72 141.28 576.13 147.03 579.53 C154.05 583.68 161.07 587.83 168.19 591.80 C171.09 593.47 171.09 593.47 173.55 595.20 C175.78 596.71 177.49 597.79 180.09 598.47 C183.02 597.84 185.53 596.82 188.27 595.61 C196.68 592.21 206.12 592.98 214.39 596.42 C217.46 597.92 220.24 599.57 223.09 601.47 C227.95 601.18 231.74 599.36 235.92 597.05 C236.56 596.70 237.20 596.36 237.85 596.01 C239.87 594.92 241.89 593.82 243.91 592.72 C245.25 591.99 246.59 591.27 247.93 590.55 C250.51 589.16 253.08 587.75 255.64 586.34 C257.73 585.20 259.85 584.10 262.00 583.07 C266.84 580.81 266.84 580.81 269.30 576.23 C269.38 574.49 269.38 574.49 269.47 572.72 C269.57 571.48 269.68 570.25 269.79 568.97 C269.94 567.24 269.94 567.24 270.09 565.47 C271.40 558.91 274.26 554.48 278.57 549.41 C280.29 547.44 280.29 547.44 281.09 544.47 C283.09 543.34 283.09 543.34 285.09 542.47 C289.60 537.96 287.22 520.07 287.23 513.74 C287.23 511.75 287.23 509.75 287.22 507.75 C287.22 504.74 287.22 501.73 287.23 498.72 C287.23 496.74 287.23 494.77 287.23 492.80 C287.23 491.49 287.23 491.49 287.23 490.16 C287.20 481.25 286.63 472.36 286.09 463.47 C285.49 463.46 284.89 463.46 284.27 463.46 C269.61 463.38 254.96 463.28 240.30 463.18 C233.21 463.13 226.12 463.08 219.04 463.05 C212.20 463.01 205.35 462.96 198.51 462.91 C195.90 462.89 193.30 462.88 190.69 462.86 C187.03 462.85 183.37 462.82 179.72 462.79 C178.10 462.78 178.10 462.78 176.45 462.78 C163.36 462.63 163.36 462.63 158.22 457.72 C155.92 454.20 155.01 452.66 155.09 448.47 C156.85 440.80 161.41 435.13 166.23 429.10 C169.43 425.09 172.39 420.92 175.34 416.72 C176.07 415.69 176.07 415.69 176.81 414.64 C180.32 409.64 183.72 404.57 187.09 399.47 C186.13 399.47 185.16 399.47 184.17 399.47 C127.48 399.47 70.79 399.47 14.09 399.47 Z M1.09 461.47 C2.09 463.47 2.09 463.47 2.09 463.47 Z M-51.88 545.91 C-52.80 546.44 -52.80 546.44 -53.73 546.99 C-55.04 547.76 -56.34 548.52 -57.65 549.29 C-59.60 550.44 -61.55 551.58 -63.5 552.72 C-69.59 556.30 -75.65 559.91 -81.65 563.64 C-87.38 567.18 -93.20 570.51 -99.08 573.78 C-106.84 578.12 -114.47 582.60 -122.02 587.29 C-129.26 591.76 -136.67 595.91 -144.11 600.05 C-145.92 601.07 -147.73 602.09 -149.54 603.13 C-150.97 603.94 -152.41 604.73 -153.88 605.47 C-155.76 606.41 -155.76 606.41 -157.90 608.47 C-158.42 611.26 -158.59 613.32 -158.52 616.09 C-158.71 626.37 -161.94 634.10 -167.90 642.47 C-168.45 643.28 -169.00 644.10 -169.57 644.94 C-172.97 648.63 -177.21 650.46 -181.76 652.46 C-184.12 653.58 -184.12 653.58 -186.90 656.47 C-186.90 660.43 -186.90 664.39 -186.90 668.47 C-64.14 668.47 58.61 668.47 185.09 668.47 C185.09 664.51 185.09 660.55 185.09 656.47 C184.43 656.47 183.77 656.47 183.09 656.47 C172.06 649.52 167.44 639.23 164.57 626.94 C164.09 624.47 164.09 624.47 164.09 622.47 C161.85 621.10 159.60 619.75 157.34 618.41 C156.39 617.82 156.39 617.82 155.42 617.22 C151.89 614.99 151.89 614.99 147.88 614.86 C147.29 615.06 146.70 615.26 146.09 615.47 C146.02 614.87 145.95 614.27 145.88 613.65 C144.79 610.62 143.30 610.04 140.52 608.47 C139.55 607.92 138.58 607.37 137.59 606.80 C136.54 606.21 135.49 605.63 134.41 605.03 C132.22 603.79 130.03 602.55 127.85 601.30 C126.17 600.36 126.17 600.36 124.46 599.39 C118.24 595.84 112.11 592.15 105.96 588.47 C105.10 587.96 104.24 587.44 103.35 586.92 C102.60 586.47 101.85 586.02 101.07 585.55 C98.74 584.27 96.78 583.47 94.09 583.47 C94.09 582.81 94.09 582.15 94.09 581.47 C90.46 578.90 86.60 576.69 82.78 574.43 C80.86 573.29 78.95 572.13 77.04 570.97 C75.83 570.25 74.61 569.52 73.39 568.80 C72.28 568.14 71.17 567.47 70.03 566.79 C67.26 565.24 67.26 565.24 64.70 565.76 C63.90 566.11 63.90 566.11 63.09 566.47 C63.05 565.85 63.01 565.23 62.97 564.59 C62.68 563.89 62.39 563.19 62.09 562.47 C60.12 561.74 58.11 561.07 56.09 560.47 C54.47 558.97 54.47 558.97 53.09 557.47 C51.78 556.77 50.44 556.10 49.09 555.47 C48.76 555.14 48.43 554.81 48.09 554.47 C45.33 552.75 42.52 551.12 39.72 549.47 C38.94 549.00 38.16 548.54 37.35 548.06 C36.60 547.62 35.84 547.17 35.07 546.72 C34.38 546.31 33.69 545.90 32.98 545.48 C30.97 544.33 30.97 544.33 28.09 543.47 C24.61 545.24 21.59 547.56 18.47 549.91 C8.02 557.28 -4.22 559.99 -16.82 558.01 C-27.26 555.71 -35.68 551.10 -43.44 543.79 C-46.42 541.09 -48.81 544.10 -51.88 545.91 Z M-247.90 627.47 C-246.90 630.47 -246.90 630.47 -246.90 630.47 Z " fill="#212121" transform="translate(520.90,78.52)"/>
<path d="M0 0 C0.66 0 1.32 0 2 0 C2 3.96 2 7.92 2 12 C-1.39 13.69 -5.27 13.13 -9.01 13.12 C-10.42 13.12 -10.42 13.12 -11.87 13.12 C-15.05 13.12 -18.24 13.11 -21.43 13.11 C-23.70 13.11 -25.98 13.11 -28.26 13.11 C-34.45 13.11 -40.65 13.10 -46.84 13.10 C-53.31 13.09 -59.78 13.09 -66.25 13.09 C-77.11 13.09 -87.98 13.08 -98.84 13.07 C-110.03 13.06 -121.22 13.05 -132.41 13.05 C-133.45 13.05 -133.45 13.05 -134.50 13.05 C-137.96 13.05 -141.42 13.05 -144.88 13.05 C-173.58 13.03 -202.29 13.02 -231 13 C-231.33 12.34 -231.66 11.68 -232 11 C-219.10 9.44 -206.14 10.11 -193.18 10.43 C-190.83 10.49 -188.48 10.54 -186.13 10.59 C-180.42 10.72 -174.71 10.85 -169 11 C-168.67 10.34 -168.34 9.68 -168 9 C-168 9.66 -168 10.32 -168 11 C-167.12 10.96 -166.24 10.93 -165.33 10.90 C-110.30 9.11 -55.02 9.16 0 11 C0 7.37 0 3.74 0 0 Z " fill="#090909" transform="translate(707,736)"/>
<path d="M0 0 C22.91 -0.06 45.82 -0.12 68.73 -0.15 C79.37 -0.17 90.01 -0.19 100.65 -0.22 C109.92 -0.25 119.19 -0.27 128.46 -0.28 C133.37 -0.28 138.28 -0.29 143.19 -0.31 C147.81 -0.33 152.42 -0.34 157.04 -0.33 C158.74 -0.34 160.44 -0.34 162.14 -0.35 C164.45 -0.37 166.76 -0.36 169.07 -0.36 C170.37 -0.36 171.66 -0.36 173.00 -0.36 C173.99 -0.24 174.98 -0.12 176 0 C176.99 1.48 176.99 1.48 178 3 C119.92 2.67 61.84 2.34 2 2 C1.67 2.99 1.34 3.98 1 5 C0.67 5 0.34 5 0 5 C0 3.35 0 1.7 0 0 Z " fill="#0D0D0D" transform="translate(313,475)"/>
<path d="M0 0 C0.33 0 0.66 0 1 0 C1.14 18.70 0.97 37.40 0.68 56.10 C0.64 58.58 0.60 61.05 0.57 63.53 C0.53 67.05 0.47 70.56 0.41 74.08 C0.40 75.15 0.39 76.22 0.37 77.33 C0.35 78.31 0.33 79.29 0.31 80.30 C0.30 81.16 0.29 82.03 0.27 82.91 C0 85 0 85 -2 87 C-2.04 76.24 -2.08 65.49 -2.10 54.74 C-2.11 49.74 -2.12 44.75 -2.15 39.76 C-2.17 34.94 -2.18 30.12 -2.18 25.31 C-2.19 23.47 -2.20 21.63 -2.21 19.79 C-2.22 17.22 -2.22 14.64 -2.22 12.07 C-2.23 11.31 -2.24 10.54 -2.24 9.76 C-2.23 6.01 -2.09 3.17 0 0 Z " fill="#070808" transform="translate(500,248)"/>
<path d="M0 0 C0.66 0.33 1.32 0.66 2 1 C3.90 50.89 3.90 50.89 1 69 C-1 67 -1 67 -1.20 64.21 C-1.18 63.03 -1.15 61.84 -1.13 60.62 C-1.12 59.96 -1.11 59.31 -1.10 58.64 C-1.07 56.47 -1.02 54.31 -0.97 52.14 C-0.95 50.64 -0.92 49.14 -0.90 47.65 C-0.83 43.70 -0.75 39.75 -0.67 35.80 C-0.59 31.77 -0.52 27.74 -0.45 23.71 C-0.31 15.81 -0.16 7.90 0 0 Z " fill="#121212" transform="translate(498,339)"/>
<path d="M0 0 C1.48 0.99 1.48 0.99 3 2 C3.28 4.84 3.37 7.46 3.34 10.30 C3.34 11.59 3.34 11.59 3.34 12.90 C3.33 15.75 3.31 18.59 3.29 21.44 C3.28 23.41 3.28 25.38 3.28 27.35 C3.26 32.54 3.23 37.73 3.20 42.93 C3.17 48.22 3.16 53.52 3.14 58.81 C3.11 69.21 3.06 79.60 3 90 C2.67 90 2.34 90 2 90 C1.67 70.53 1.34 51.06 1 31 C0.67 31 0.34 31 0 31 C0 20.77 0 10.54 0 0 Z " fill="#353535" transform="translate(498,446)"/>
<path d="M0 0 C0.33 0 0.66 0 1 0 C1 3.63 1 7.26 1 11 C3.15 10.74 3.15 10.74 5.35 10.49 C10.72 9.95 15.98 9.95 21.38 10.12 C22.79 10.15 22.79 10.15 24.23 10.19 C27.19 10.26 30.16 10.35 33.12 10.43 C35.15 10.49 37.17 10.54 39.20 10.59 C44.13 10.72 49.06 10.85 54 11 C52 13 52 13 49.87 13.24 C48.99 13.24 48.11 13.24 47.21 13.24 C45.72 13.24 45.72 13.24 44.20 13.25 C43.12 13.24 42.04 13.23 40.93 13.23 C39.83 13.23 38.73 13.22 37.59 13.22 C35.26 13.22 32.93 13.21 30.59 13.20 C27.01 13.18 23.43 13.18 19.85 13.18 C17.58 13.18 15.32 13.17 13.06 13.16 C11.98 13.16 10.90 13.16 9.79 13.16 C8.80 13.15 7.80 13.15 6.78 13.14 C5.90 13.14 5.02 13.13 4.12 13.13 C2 13 2 13 0 12 C0 8.04 0 4.08 0 0 Z " fill="#0A090A" transform="translate(332,736)"/>
<path d="M0 0 C0.66 0 1.32 0 2 0 C2 22.77 2 45.54 2 69 C1.67 69 1.34 69 1 69 C0.90 67.77 0.90 67.77 0.81 66.51 C0.69 64.89 0.69 64.89 0.56 63.25 C0.48 62.18 0.40 61.11 0.31 60.01 C0.05 57.56 -0.31 55.36 -1 53 C-0.34 53 0.32 53 1 53 C0.67 38.48 0.34 23.96 0 9 C-0.33 9 -0.66 9 -1 9 C-1.12 2.25 -1.12 2.25 0 0 Z " fill="#565555" transform="translate(489,478)"/>
<path d="M0 0 C0 0.66 0 1.32 0 2 C16.17 2 32.34 2 49 2 C49 2.33 49 2.66 49 3 C28.87 3 8.74 3 -12 3 C-12.33 2.34 -12.66 1.68 -13 1 C-11.58 0.83 -10.16 0.66 -8.75 0.5 C-7.56 0.36 -7.56 0.36 -6.35 0.21 C-4 0 -4 0 0 0 Z " fill="#100F10" transform="translate(488,746)"/>
<path d="M0 0 C0.33 0 0.66 0 1 0 C1.07 4.35 1.12 8.71 1.16 13.07 C1.17 14.56 1.20 16.04 1.22 17.52 C1.26 19.66 1.27 21.79 1.29 23.92 C1.30 25.20 1.32 26.49 1.34 27.81 C1 31 1 31 -0.51 32.94 C-1.00 33.29 -1.49 33.64 -2 34 C-2.04 29.80 -2.08 25.60 -2.10 21.40 C-2.11 19.97 -2.13 18.54 -2.15 17.11 C-2.17 15.06 -2.18 13.00 -2.19 10.95 C-2.20 9.71 -2.21 8.48 -2.22 7.20 C-2.01 4.18 -1.59 2.53 0 0 Z " fill="#111111" transform="translate(500,248)"/>
<path d="M0 0 C4.31 2.20 6.36 4.55 8.93 8.62 C9.61 9.68 10.29 10.75 10.99 11.84 C11.65 12.88 12.31 13.92 13 15 C14.67 17.39 16.36 19.78 18.06 22.16 C18.37 22.76 18.68 23.37 19 24 C18.67 24.99 18.34 25.98 18 27 C7.58 12.87 7.58 12.87 2.81 6.18 C1.98 5.03 1.98 5.03 1.14 3.85 C0 2 0 2 0 0 Z " fill="#1B1B1B" transform="translate(700,416)"/>
<path d="M0 0 C0 3.51 -0.65 4.25 -2.70 7.01 C-3.27 7.79 -3.84 8.57 -4.42 9.36 C-5.32 10.57 -5.32 10.57 -6.25 11.81 C-7.42 13.40 -8.59 14.99 -9.76 16.58 C-10.32 17.33 -10.87 18.08 -11.45 18.86 C-13.38 21.52 -15.20 24.24 -17 27 C-17.66 25.25 -17.66 25.25 -18 23 C-16.99 20.97 -16.99 20.97 -15.42 18.84 C-14.57 17.68 -14.57 17.68 -13.71 16.49 C-13.10 15.69 -12.49 14.88 -11.87 14.06 C-11.29 13.26 -10.70 12.46 -10.10 11.64 C-6.99 7.42 -3.82 3.57 0 0 Z " fill="#191919" transform="translate(406,217)"/>
<path d="M0 0 C-1 3 -1 3 -3.72 4.54 C-4.82 5.08 -5.92 5.62 -7.06 6.18 C-11.27 8.28 -11.27 8.28 -13.72 11.98 C-13.66 14.00 -13.66 14.00 -13.28 16 C-12.81 19.28 -13.96 21.89 -15 25 C-15.33 25 -15.66 25 -16 25 C-16.30 22.58 -16.56 20.17 -16.81 17.75 C-16.90 17.06 -16.99 16.38 -17.08 15.68 C-17.26 13.67 -17.26 13.67 -17 10 C-14.83 7.71 -14.83 7.71 -12 6 C-11.14 5.43 -10.28 4.87 -9.39 4.29 C-8.54 3.78 -7.69 3.27 -6.81 2.75 C-5.52 1.96 -5.52 1.96 -4.20 1.17 C-2 0 -2 0 0 0 Z " fill="#1B1B1B" transform="translate(377,677)"/>
<path d="M0 0 C0.66 0.33 1.32 0.66 2 1 C2.02 5.22 2.04 9.45 2.06 13.68 C2.07 14.88 2.07 16.08 2.08 17.31 C2.09 18.47 2.09 19.63 2.09 20.82 C2.10 21.88 2.10 22.95 2.11 24.04 C2.00 26.81 1.62 29.30 1 32 C0.67 32 0.34 32 0 32 C-1.12 21.18 -0.79 10.81 0 0 Z " fill="#111010" transform="translate(808,543)"/>
<path d="M0 0 C0.33 0 0.66 0 1 0 C1 10.23 1 20.46 1 31 C0.34 31.33 -0.32 31.66 -1 32 C-3.33 6.67 -3.33 6.67 0 0 Z " fill="#0D0D0D" transform="translate(175,560)"/>
<path d="M0 0 C3 1 3 1 4.38 3.08 C8.66 12.46 8.50 20.92 8 31 C7.67 31 7.34 31 7 31 C6.93 30.40 6.86 29.81 6.78 29.19 C6.45 26.46 6.10 23.73 5.75 21 C5.58 19.59 5.58 19.59 5.41 18.16 C4.59 11.97 3.00 7.47 0 2 C0 1.34 0 0.68 0 0 Z " fill="#131313" transform="translate(551,563)"/>
<path d="M0 0 C0.66 0 1.32 0 2 0 C1.74 4.35 1.42 6.49 -1.43 9.87 C-4.80 12.66 -6.29 13.12 -10.57 13.09 C-11.46 13.09 -12.36 13.09 -13.28 13.08 C-14.22 13.07 -15.15 13.07 -16.12 13.06 C-17.06 13.05 -18.01 13.05 -18.98 13.04 C-21.32 13.03 -23.66 13.02 -26 13 C-26 12.67 -26 12.34 -26 12 C-15.60 11.50 -15.60 11.50 -5 11 C-4.67 9.68 -4.34 8.36 -4 7 C-3 6 -2 5 -1 4 C-0.28 1.89 -0.28 1.89 0 0 Z " fill="#353434" transform="translate(934,396)"/>
<path d="M0 0 C1.95 1.87 3.81 3.77 5.54 5.87 C9.14 10.23 12.54 13.31 17.49 16.08 C17.99 16.39 18.48 16.69 19 17 C19 17.33 19 17.66 19 18 C16.88 18.33 16.88 18.33 14 18 C11.73 16.28 9.82 14.65 7.81 12.68 C7.01 11.93 7.01 11.93 6.19 11.17 C3.80 8.89 1.83 6.75 0 4 C0 2.68 0 1.36 0 0 Z " fill="#1D1D1D" transform="translate(278,713)"/>
<path d="M0 0 C0.66 0.33 1.32 0.66 2 1 C-0.55 6.62 -0.55 6.62 -3.06 8.75 C-6.10 12.28 -6.34 16.48 -7 21 C-8.58 19.30 -8.58 19.30 -10 17 C-8.91 10.15 -4.65 4.86 0 0 Z " fill="#1B1B1A" transform="translate(50,511)"/>
<path d="M0 0 C0.33 0 0.66 0 1 0 C1.33 3.3 1.66 6.6 2 10 C2.33 10 2.66 10 3 10 C3.66 14.62 4.32 19.24 5 24 C3.68 24.33 2.36 24.66 1 25 C0.05 19.47 -0.12 14.16 -0.06 8.56 C-0.05 7.73 -0.05 6.90 -0.04 6.05 C-0.03 4.03 -0.01 2.01 0 0 Z M1 19 C2 22 2 22 2 22 Z " fill="#2C2B2B" transform="translate(272,687)"/>
<path d="M0 0 C0.78 0.01 1.56 0.03 2.36 0.04 C3.21 0.05 4.05 0.06 4.93 0.07 C5.81 0.10 6.69 0.12 7.60 0.15 C8.49 0.16 9.38 0.18 10.30 0.19 C12.51 0.22 14.71 0.27 16.91 0.34 C16.91 1.00 16.91 1.66 16.91 2.34 C17.90 2.67 18.89 3.00 19.91 3.34 C11.66 3.34 3.41 3.34 -5.08 3.34 C-2.08 0.34 -2.08 0.34 0 0 Z " fill="#171717" transform="translate(310.08,645.65)"/>
<path d="M0 0 C0.33 0 0.66 0 1 0 C2.26 7.70 1.58 14.38 0 22 C-0.33 21.01 -0.66 20.02 -1 19 C-1.66 19 -2.32 19 -3 19 C-3 18.01 -3 17.02 -3 16 C-2.34 16 -1.68 16 -1 16 C-1.33 15.01 -1.66 14.02 -2 13 C-2.12 10.32 -2.04 7.67 -2 5 C-1.67 5 -1.34 5 -1 5 C-0.67 3.35 -0.34 1.7 0 0 Z " fill="#282728" transform="translate(869,644)"/>
<path d="M0 0 C-2 3 -2 3 -3.87 3.43 C-4.62 3.45 -5.36 3.48 -6.13 3.51 C-6.93 3.54 -7.74 3.58 -8.57 3.61 C-9.83 3.65 -9.83 3.65 -11.12 3.68 C-12.39 3.73 -12.39 3.73 -13.69 3.79 C-15.79 3.87 -17.89 3.93 -20 4 C-20.33 3.34 -20.66 2.68 -21 2 C-13.94 -0.21 -7.35 -0.20 0 0 Z " fill="#2B2C2C" transform="translate(519,541)"/>
<path d="M0 0 C0.66 0 1.32 0 2 0 C0.24 3.88 -2.18 7.27 -4.62 10.75 C-5.04 11.35 -5.46 11.95 -5.89 12.57 C-6.92 14.05 -7.96 15.52 -9 17 C-9.77 15.38 -9.77 15.38 -10 13 C-8.61 10.75 -7.27 8.84 -5.62 6.81 C-5.19 6.26 -4.77 5.72 -4.33 5.15 C-1.36 1.36 -1.36 1.36 0 0 Z " fill="#1B1B1B" transform="translate(308,436)"/>
<path d="M0 0 C4.21 1.53 5.88 4.28 8.31 7.93 C9.03 8.99 9.74 10.05 10.48 11.15 C11.23 12.56 11.23 12.56 12 14 C11.67 14.99 11.34 15.98 11 17 C10.45 16.25 9.91 15.50 9.35 14.73 C8.64 13.74 7.92 12.76 7.18 11.75 C6.47 10.77 5.77 9.80 5.04 8.79 C3.80 7.09 2.54 5.41 1.23 3.76 C0 2 0 2 0 0 Z " fill="#1A1B1A" transform="translate(656,353)"/>
<path d="M0 0 C0 3.38 -0.44 3.96 -2.40 6.57 C-3.15 7.57 -3.15 7.57 -3.91 8.59 C-4.43 9.28 -4.95 9.97 -5.5 10.68 C-6.02 11.38 -6.54 12.09 -7.08 12.81 C-8.38 14.54 -9.69 16.27 -11 18 C-11.33 17.01 -11.66 16.02 -12 15 C-10.47 12.49 -8.93 10.21 -7.18 7.87 C-6.72 7.22 -6.25 6.58 -5.77 5.91 C-2.29 1.14 -2.29 1.14 0 0 Z " fill="#1B1B1A" transform="translate(385,329)"/>
<path d="M0 0 C0.33 0 0.66 0 1 0 C1.33 2.97 1.66 5.94 2 9 C-5.5 14 -5.5 14 -10 14 C-10 14.66 -10 15.32 -10 16 C-10.66 15.67 -11.32 15.34 -12 15 C-9.82 12.62 -7.71 11.23 -4.87 9.75 C-1.38 7.66 -1.10 7.38 0 3.18 C0 2.13 0 1.08 0 0 Z " fill="#2D2D2C" transform="translate(173,584)"/>
<path d="M0 0 C0.99 0.33 1.98 0.66 3 1 C1.38 3.31 -0.24 5.62 -1.87 7.93 C-2.33 8.59 -2.79 9.25 -3.26 9.93 C-6.77 14.88 -6.77 14.88 -9 16 C-8.37 11.92 -6.23 9.10 -3.93 5.75 C-3.20 4.67 -2.47 3.59 -1.71 2.48 C-1.14 1.66 -0.58 0.84 0 0 Z " fill="#191A1A" transform="translate(97,444)"/>
<path d="M0 0 C0.33 0.66 0.66 1.32 1 2 C0.34 2 -0.32 2 -1 2 C-2.41 4.53 -3.19 6.72 -3.93 9.56 C-4.92 12.74 -5.43 14.02 -8 16 C-8.58 10.34 -7.44 7.36 -4.38 2.60 C-3 1 -3 1 0 0 Z " fill="#1F1E1F" transform="translate(96,384)"/>
<path d="M0 0 C4.04 1.48 7.61 3.42 11.31 5.62 C12.38 6.25 13.44 6.88 14.55 7.53 C15.76 8.26 15.76 8.26 17 9 C15.38 9.70 15.38 9.70 13 10 C10.01 8.67 10.01 8.67 6.81 6.75 C5.74 6.12 4.68 5.50 3.58 4.85 C1 3 1 3 0 0 Z " fill="#1C1B1B" transform="translate(585,641)"/>
<path d="M0 0 C0.66 0 1.32 0 2 0 C0.45 3.34 -1.49 6.24 -3.62 9.25 C-4.25 10.14 -4.88 11.03 -5.53 11.95 C-6.02 12.62 -6.50 13.30 -7 14 C-7.99 13.67 -8.98 13.34 -10 13 C-8.52 11.02 -7.04 9.04 -5.56 7.06 C-5.14 6.49 -4.72 5.93 -4.28 5.35 C-1.11 1.11 -1.11 1.11 0 0 Z " fill="#1A1B1A" transform="translate(119,350)"/>
<path d="M0 0 C3.72 1.24 4.50 2.64 6.75 5.81 C7.38 6.68 8.01 7.55 8.67 8.45 C10 11 10 11 9.70 13.32 C9.47 13.87 9.23 14.43 9 15 C7.86 13.44 6.74 11.87 5.62 10.31 C4.99 9.44 4.37 8.57 3.72 7.67 C2.10 5.16 1.00 2.80 0 0 Z " fill="#1B1A1A" transform="translate(546,116)"/>
<path d="M0 0 C-0.33 0.66 -0.66 1.32 -1 2 C-3.71 2.31 -6.33 2.51 -9.06 2.62 C-9.82 2.66 -10.57 2.70 -11.36 2.74 C-13.24 2.83 -15.12 2.91 -17 3 C-16.67 2.01 -16.34 1.02 -16 0 C-10.49 -1.30 -5.52 -0.71 0 0 Z " fill="#111010" transform="translate(161,747)"/>
<path d="M0 0 C3.36 1.12 3.62 1.45 5.18 4.43 C7.49 9.26 7.38 13.75 7 19 C6.67 19 6.34 19 6 19 C5.81 18.19 5.63 17.38 5.44 16.55 C5.19 15.48 4.94 14.41 4.68 13.31 C4.44 12.25 4.20 11.20 3.94 10.11 C3.00 7.02 1.70 4.72 0 2 C0 1.34 0 0.68 0 0 Z " fill="#161716" transform="translate(862,631)"/>
<path d="M0 0 C0 4.03 -1.59 5.49 -4 8.68 C-4.74 9.68 -5.48 10.67 -6.25 11.69 C-7.11 12.83 -7.11 12.83 -8 14 C-8.70 12.29 -8.70 12.29 -9 10 C-7.63 7.67 -7.63 7.67 -5.68 5.31 C-5.05 4.52 -4.41 3.73 -3.76 2.92 C-2 1 -2 1 0 0 Z " fill="#1B1B1B" transform="translate(424,191)"/>
<path d="M0 0 C1.23 3.68 0.90 6.91 0.56 10.75 C0.46 11.92 0.35 13.09 0.25 14.29 C0.17 15.18 0.08 16.08 0 17 C-0.66 17 -1.32 17 -2 17 C-2.05 14.72 -2.09 12.45 -2.12 10.18 C-2.14 8.92 -2.17 7.65 -2.19 6.35 C-2 3 -2 3 0 0 Z " fill="#0D0E0E" transform="translate(792,641)"/>
<path d="M0 0 C0.33 0 0.66 0 1 0 C1.33 7.59 1.66 15.18 2 23 C2.99 23.33 3.98 23.66 5 24 C5 24.66 5 25.32 5 26 C3.06 25.68 3.06 25.68 1 25 C-0.00 21.99 -0.11 20.02 -0.09 16.89 C-0.09 15.91 -0.09 14.92 -0.08 13.91 C-0.07 12.89 -0.07 11.86 -0.06 10.81 C-0.05 9.77 -0.05 8.74 -0.04 7.67 C-0.03 5.11 -0.02 2.55 0 0 Z " fill="#191818" transform="translate(531,523)"/>
<path d="M0 0 C0.66 0.33 1.32 0.66 2 1 C0.87 2.77 -0.24 4.54 -1.37 6.31 C-2.00 7.29 -2.62 8.28 -3.27 9.30 C-4.49 11.21 -5.74 13.11 -7 15 C-7.61 11.55 -7.35 9.54 -5.44 6.59 C-3.67 4.35 -1.87 2.15 0 0 Z " fill="#191919" transform="translate(685,510)"/>
<path d="M0 0 C7.04 -0.21 13.24 -0.07 20 2 C20 2.66 20 3.32 20 4 C16.7 3.67 13.4 3.34 10 3 C10 2.67 10 2.34 10 2 C6.7 1.67 3.4 1.34 0 1 C0 0.67 0 0.34 0 0 Z " fill="#323131" transform="translate(188,586)"/>
<path d="M0 0 C5.28 0.33 9.24 3.48 13 7 C13 7.66 13 8.32 13 9 C7.97 7.42 3.97 4.38 0 1 C0 0.67 0 0.34 0 0 Z " fill="#1A1A1A" transform="translate(455,406)"/>
<path d="M0 0 C3.93 1.31 5.74 3.95 8.14 7.14 C9.22 9.49 8.85 10.61 8 13 C6.66 11.21 5.32 9.41 4 7.62 C3.25 6.62 2.51 5.62 1.75 4.60 C0 2 0 2 0 0 Z " fill="#1A1919" transform="translate(684,393)"/>
<path d="M0 0 C4.41 2.20 6.68 4.63 9 9 C8.60 11.19 8.60 11.19 8 13 C6.66 11.21 5.32 9.41 4 7.62 C3.25 6.62 2.51 5.62 1.75 4.60 C0 2 0 2 0 0 Z " fill="#1B1B1B" transform="translate(269,351)"/>
<path d="M0 0 C0 3.83 -1.26 5.11 -3.5 8.18 C-4.14 9.08 -4.79 9.98 -5.46 10.91 C-5.97 11.60 -6.47 12.29 -7 13 C-7.67 11.26 -7.67 11.26 -8 9 C-6.85 6.89 -6.85 6.89 -5.18 4.81 C-4.64 4.11 -4.10 3.42 -3.54 2.70 C-2 1 -2 1 0 0 Z " fill="#171717" transform="translate(698,493)"/>
<path d="M0 0 C0 3.83 -1.26 5.11 -3.5 8.18 C-4.14 9.08 -4.79 9.98 -5.46 10.91 C-5.97 11.60 -6.47 12.29 -7 13 C-7.67 11.26 -7.67 11.26 -8 9 C-6.85 6.89 -6.85 6.89 -5.18 4.81 C-4.64 4.11 -4.10 3.42 -3.54 2.70 C-2 1 -2 1 0 0 Z " fill="#191918" transform="translate(331,405)"/>
<path d="M0 0 C0 3.83 -1.26 5.11 -3.5 8.18 C-4.14 9.08 -4.79 9.98 -5.46 10.91 C-5.97 11.60 -6.47 12.29 -7 13 C-7.67 11.26 -7.67 11.26 -8 9 C-6.85 6.89 -6.85 6.89 -5.18 4.81 C-4.64 4.11 -4.10 3.42 -3.54 2.70 C-2 1 -2 1 0 0 Z " fill="#1C1B1B" transform="translate(799,287)"/>
<path d="M0 0 C0 3.83 -1.26 5.11 -3.5 8.18 C-4.14 9.08 -4.79 9.98 -5.46 10.91 C-5.97 11.60 -6.47 12.29 -7 13 C-7.67 11.26 -7.67 11.26 -8 9 C-6.85 6.89 -6.85 6.89 -5.18 4.81 C-4.64 4.11 -4.10 3.42 -3.54 2.70 C-2 1 -2 1 0 0 Z " fill="#1B1B1B" transform="translate(485,104)"/>
<path d="M0 0 C0.66 0.33 1.32 0.66 2 1 C0.38 3.04 -1.28 5.04 -3 7 C-3.66 7 -4.32 7 -5 7 C-5.66 8.32 -6.32 9.64 -7 11 C-7 5.90 -5.39 4.63 -2 1 C-1.34 0.67 -0.68 0.34 0 0 Z " fill="#181818" transform="translate(803,624)"/>
<path d="M0 0 C-3.3 2.64 -6.6 5.28 -10 8 C-10.66 7.67 -11.32 7.34 -12 7 C-5.63 -1.40 -5.63 -1.40 0 0 Z " fill="#181818" transform="translate(554,343)"/>
<path d="M0 0 C0 3.80 -1.13 4.77 -3.5 7.68 C-4.47 8.89 -4.47 8.89 -5.46 10.13 C-5.97 10.75 -6.47 11.36 -7 12 C-7.33 11.01 -7.66 10.02 -8 9 C-6.85 6.99 -6.85 6.99 -5.18 4.87 C-4.64 4.17 -4.10 3.46 -3.54 2.74 C-2 1 -2 1 0 0 Z " fill="#1B1B1B" transform="translate(137,326)"/>
<path d="M0 0 C0.99 0 1.98 0 3 0 C2.01 4.62 1.02 9.24 0 14 C-0.33 14 -0.66 14 -1 14 C-1.02 12.22 -1.04 10.45 -1.06 8.68 C-1.07 7.70 -1.08 6.71 -1.09 5.69 C-1 3 -1 3 0 0 Z " fill="#171718" transform="translate(466,572)"/>
<path d="M0 0 C10.52 5.05 10.52 5.05 12 8 C11.01 8.33 10.02 8.66 9 9 C6.99 7.89 6.99 7.89 4.87 6.25 C4.17 5.71 3.46 5.18 2.74 4.64 C1 3 1 3 0 0 Z " fill="#191919" transform="translate(170,459)"/>
<path d="M0 0 C6.91 -0.88 10.59 1.88 16 6 C13 7 13 7 10.31 5.68 C9.54 5.13 8.78 4.57 8 4 C8 3.34 8 2.68 8 2 C5.36 1.67 2.72 1.34 0 1 C0 0.67 0 0.34 0 0 Z " fill="#131312" transform="translate(136,439)"/>
<path d="M0 0 C0.33 0 0.66 0 1 0 C1 2.97 1 5.94 1 9 C1.99 8.67 2.98 8.34 4 8 C4 10.31 4 12.62 4 15 C0.54 12.32 -0.13 9.17 -1 5 C-0.62 2.06 -0.62 2.06 0 0 Z " fill="#303030" transform="translate(137,756)"/>
<path d="M0 0 C4.20 1.50 5.89 4.17 8 8 C7.67 8.99 7.34 9.98 7 11 C5.66 9.33 4.32 7.67 3 6 C2.42 5.27 1.84 4.55 1.25 3.81 C0 2 0 2 0 0 Z " fill="#1B1A1A" transform="translate(228,603)"/>
<path d="M0 0 C0.66 0 1.32 0 2 0 C2 4.95 2 9.9 2 15 C1.34 14.67 0.68 14.34 0 14 C0 12.35 0 10.7 0 9 C-0.33 9 -0.66 9 -1 9 C-1.12 2.25 -1.12 2.25 0 0 Z " fill="#4A4949" transform="translate(489,478)"/>
<path d="M0 0 C4.28 3.83 6.86 7.52 7.18 13.37 C7.12 14.24 7.06 15.10 7 16 C6.67 16 6.34 16 6 16 C5.67 13.36 5.34 10.72 5 8 C4.34 8 3.68 8 3 8 C0.95 5.09 0 3.59 0 0 Z " fill="#2C2C2B" transform="translate(656,272)"/>
<path d="M0 0 C-1.09 3.29 -1.45 3.61 -4.31 5.25 C-4.90 5.60 -5.50 5.96 -6.11 6.32 C-8.44 7.15 -9.69 6.79 -12 6 C-10.37 4.99 -8.75 3.99 -7.12 3 C-5.76 2.16 -5.76 2.16 -4.38 1.31 C-2 0 -2 0 0 0 Z " fill="#181818" transform="translate(459,629)"/>
<path d="M0 0 C6.33 0.33 6.33 0.33 9 3 C5.04 3 1.08 3 -3 3 C-2.01 2.01 -1.02 1.02 0 0 Z " fill="#191919" transform="translate(876,417)"/>
<path d="M0 0 C0.66 0 1.32 0 2 0 C0.34 3.57 -1.78 6.74 -4 10 C-4.99 9.67 -5.98 9.34 -7 9 C-5.88 7.49 -4.75 5.99 -3.62 4.5 C-2.99 3.66 -2.37 2.82 -1.72 1.96 C-1.15 1.31 -0.58 0.66 0 0 Z " fill="#1A1A1A" transform="translate(340,391)"/>
<path d="M0 0 C0.66 0 1.32 0 2 0 C0.34 3.57 -1.78 6.74 -4 10 C-4.99 9.67 -5.98 9.34 -7 9 C-5.88 7.49 -4.75 5.99 -3.62 4.5 C-2.99 3.66 -2.37 2.82 -1.72 1.96 C-1.15 1.31 -0.58 0.66 0 0 Z " fill="#1A1B1B" transform="translate(815,263)"/>
<path d="M0 0 C3.55 0.29 4.80 0.80 7.37 3.37 C8.17 4.67 8.17 4.67 9 6 C8.67 6.99 8.34 7.98 8 9 C6.79 7.47 5.59 5.94 4.38 4.41 C2.94 2.72 2.94 2.72 0 2 C0 1.34 0 0.68 0 0 Z " fill="#1A1A1A" transform="translate(833,255)"/>
<path d="M0 0 C3.99 2.05 6.14 3.86 8 8 C7.67 8.99 7.34 9.98 7 11 C5.82 9.54 4.66 8.08 3.5 6.62 C2.52 5.40 2.52 5.40 1.53 4.16 C0 2 0 2 0 0 Z " fill="#1B1A1A" transform="translate(630,237)"/>
<path d="M0 0 C0.99 0 1.98 0 3 0 C1.34 3.57 -0.78 6.74 -3 10 C-3.75 8.37 -3.75 8.37 -4 6 C-2.25 2.75 -2.25 2.75 0 0 Z " fill="#1B1B1B" transform="translate(317,422)"/>
<path d="M0 0 C0 3.60 -0.81 4.41 -3 7.18 C-3.55 7.90 -4.11 8.61 -4.68 9.35 C-5.12 9.89 -5.55 10.44 -6 11 C-6.64 9.19 -6.64 9.19 -7 7 C-3.01 1.50 -3.01 1.50 0 0 Z " fill="#1A1A19" transform="translate(758,345)"/>
<path d="M0 0 C3.26 0.22 4.93 0.52 7.62 2.25 C7.62 2.58 7.62 2.91 7.62 3.25 C3.33 2.92 -0.95 2.59 -5.37 2.25 C-3.37 0.25 -3.37 0.25 0 0 Z " fill="#151415" transform="translate(194.37,385.75)"/>
<path d="M0 0 C2.12 0.37 2.12 0.37 4 1 C3.07 1.49 3.07 1.49 2.12 2 C-1.01 4.95 -1.17 7.80 -2 12 C-2.66 10.68 -3.32 9.36 -4 8 C-3.34 8 -2.68 8 -2 8 C-2.04 7.05 -2.08 6.10 -2.12 5.12 C-2 2 -2 2 0 0 Z " fill="#30302F" transform="translate(756,704)"/>
<path d="M0 0 C2.66 4 2.66 4 3 7 C2.41 9.35 1.75 11.69 1 14 C0.67 14 0.34 14 0 14 C0 9.38 0 4.76 0 0 Z " fill="#111110" transform="translate(361,688)"/>
<path d="M0 0 C3.99 0.61 6.80 2.60 10 5 C10 5.66 10 6.32 10 7 C5.56 5.60 3.12 3.39 0 0 Z " fill="#181818" transform="translate(166,485)"/>
<path d="M0 0 C0.66 0 1.32 0 2 0 C1.52 4.31 0.25 6.16 -3 9 C-3.66 8.67 -4.32 8.34 -5 8 C-4.21 6.66 -3.42 5.32 -2.62 4 C-2.18 3.25 -1.74 2.51 -1.28 1.75 C-0.86 1.17 -0.43 0.59 0 0 Z " fill="#191918" transform="translate(887,432)"/>
<path d="M0 0 C0.33 0 0.66 0 1 0 C1 7.59 1 15.18 1 23 C0.67 23 0.34 23 0 23 C0 15.41 0 7.82 0 0 Z " fill="#3D3D3C" transform="translate(521,399)"/>
<path d="M0 0 C0 3.39 -0.52 4.06 -2.5 6.68 C-2.96 7.31 -3.42 7.93 -3.90 8.57 C-4.26 9.04 -4.62 9.51 -5 10 C-5.61 8.16 -5.61 8.16 -6 6 C-4.21 3.35 -2.87 1.43 0 0 Z " fill="#1A1A1A" transform="translate(358,367)"/>
<path d="M0 0 C0.66 0 1.32 0 2 0 C2 3.3 2 6.6 2 10 C1.34 9.67 0.68 9.34 0 9 C-1.28 2.57 -1.28 2.57 0 0 Z " fill="#161617" transform="translate(623,298)"/>
<path d="M0 0 C0.66 0.33 1.32 0.66 2 1 C0.02 3.97 -1.96 6.94 -4 10 C-5 6 -5 6 -4.00 4.29 C-2.66 2.86 -1.33 1.43 0 0 Z " fill="#1B1B1B" transform="translate(157,296)"/>
<path d="M0 0 C0.53 0.22 1.07 0.45 1.62 0.68 C0.63 1.18 0.63 1.18 -0.37 1.68 C-0.37 2.34 -0.37 3.00 -0.37 3.68 C-2.68 4.31 -2.68 4.31 -5.37 4.68 C-6.36 4.02 -7.35 3.36 -8.37 2.68 C-2.95 -0.38 -2.95 -0.38 0 0 Z " fill="#282828" transform="translate(710.37,673.31)"/>
<path d="M0 0 C-1.90 1.90 -3.33 2.93 -6.04 3.19 C-8.03 3.18 -10.01 3.09 -12 3 C-8.52 0.68 -4.04 -2.02 0 0 Z " fill="#141314" transform="translate(213,674)"/>
<path d="M0 0 C3.59 1.33 6.75 2.96 10 5 C8.31 5.68 8.31 5.68 6 6 C3.31 4.75 3.31 4.75 1 3 C0.67 2.01 0.34 1.02 0 0 Z " fill="#1A1A1A" transform="translate(246,669)"/>
<path d="M0 0 C-1.28 0.86 -2.57 1.71 -3.87 2.56 C-4.59 3.03 -5.31 3.51 -6.05 4.00 C-6.69 4.33 -7.33 4.66 -8 5 C-8.66 4.67 -9.32 4.34 -10 4 C-4.75 -1.42 -4.75 -1.42 0 0 Z " fill="#1A1A1A" transform="translate(460,599)"/>
<path d="M0 0 C7.26 0 14.52 0 22 0 C22 0.33 22 0.66 22 1 C14.74 1 7.48 1 0 1 C0 0.67 0 0.34 0 0 Z " fill="#3D3C3C" transform="translate(458,479)"/>
<path d="M0 0 C4.83 0.41 6.82 2.46 10 6 C5.16 5.58 3.17 3.53 0 0 Z " fill="#191919" transform="translate(488,430)"/>
<path d="M0 0 C2.96 2.80 5.44 5.18 7 9 C6.01 9 5.02 9 4 9 C0 3.85 0 3.85 0 0 Z " fill="#191918" transform="translate(756,427)"/>
<path d="M0 0 C1.32 0.33 2.64 0.66 4 1 C0.53 3.97 0.53 3.97 -3 7 C-3.66 6.67 -4.32 6.34 -5 6 C-3.35 4.02 -1.7 2.04 0 0 Z " fill="#19191A" transform="translate(560,334)"/>
<path d="M0 0 C3.33 1.38 5.22 2.82 7 6 C6.57 8.13 6.57 8.13 6 10 C4.99 8.71 3.99 7.42 3 6.12 C2.44 5.40 1.88 4.68 1.31 3.94 C0 2 0 2 0 0 Z " fill="#181817" transform="translate(600,194)"/>
<path d="M0 0 C0.59 0.22 1.19 0.45 1.81 0.68 C0.66 1.58 0.66 1.58 -0.5 2.5 C-2.53 4.15 -4.38 5.79 -6.18 7.68 C-5.82 4.97 -5.46 3.07 -3.87 0.81 C-2.18 -0.31 -2.18 -0.31 0 0 Z " fill="#181819" transform="translate(504.18,79.31)"/>
<path d="M0 0 C0.99 0.33 1.98 0.66 3 1 C2.69 1.68 2.38 2.36 2.06 3.06 C0.86 6.36 0.40 9.51 0 13 C-0.33 13 -0.66 13 -1 13 C-1.02 11.20 -1.04 9.41 -1.06 7.62 C-1.07 6.62 -1.08 5.62 -1.09 4.60 C-1 2 -1 2 0 0 Z " fill="#101011" transform="translate(139,752)"/>
<path d="M0 0 C3.76 0.50 5.50 1.15 8 4 C8.99 4.66 9.98 5.32 11 6 C6.48 5.46 3.61 3.69 0 1 C0 0.67 0 0.34 0 0 Z " fill="#161616" transform="translate(737,677)"/>
<path d="M0 0 C3.59 1.33 6.75 2.96 10 5 C8.31 5.68 8.31 5.68 6 6 C3.31 4.75 3.31 4.75 1 3 C0.67 2.01 0.34 1.02 0 0 Z " fill="#191919" transform="translate(626,665)"/>
<path d="M0 0 C1 3 1 3 0.00 5.04 C-0.47 5.75 -0.94 6.45 -1.43 7.18 C-1.91 7.90 -2.38 8.61 -2.87 9.35 C-3.24 9.89 -3.61 10.44 -4 11 C-6 8 -6 8 -6 6 C-4.34 4.64 -2.68 3.31 -1 2 C-0.67 1.34 -0.34 0.68 0 0 Z " fill="#272726" transform="translate(848,464)"/>
<path d="M0 0 C3 1 3 1 4.18 3.06 C5.23 6.85 5.13 10.07 5 14 C4.67 14 4.34 14 4 14 C3.87 13.40 3.75 12.81 3.63 12.20 C2.73 7.96 1.79 3.97 0 0 Z " fill="#0D0E0D" transform="translate(731,460)"/>
<path d="M0 0 C0.33 0 0.66 0 1 0 C1.02 1.93 1.04 3.87 1.06 5.81 C1.07 6.89 1.08 7.97 1.09 9.08 C1 12 1 12 0 15 C-0.66 15 -1.32 15 -2 15 C-1.85 14.38 -1.71 13.76 -1.56 13.12 C-0.77 8.77 -0.40 4.39 0 0 Z " fill="#0F0F0E" transform="translate(768,446)"/>
<path d="M0 0 C0.99 0.33 1.98 0.66 3 1 C-0.46 3.97 -0.46 3.97 -4 7 C-4.66 6.67 -5.32 6.34 -6 6 C-2.25 1.12 -2.25 1.12 0 0 Z " fill="#171717" transform="translate(868,450)"/>
<path d="M0 0 C0.99 0.33 1.98 0.66 3 1 C-0.46 3.97 -0.46 3.97 -4 7 C-4.66 6.67 -5.32 6.34 -6 6 C-2.25 1.12 -2.25 1.12 0 0 Z " fill="#161616" transform="translate(588,313)"/>
<path d="M0 0 C3.16 1.36 3.99 1.98 6 5 C5.62 7.18 5.62 7.18 5 9 C4.16 7.87 3.32 6.75 2.5 5.62 C2.03 4.99 1.57 4.37 1.09 3.72 C0 2 0 2 0 0 Z " fill="#1A1A1A" transform="translate(615,215)"/>
<path d="M0 0 C0.75 1.62 0.75 1.62 1 4 C-2.17 9.58 -2.17 9.58 -5 11 C-4.32 6.80 -2.14 3.59 0 0 Z " fill="#121212" transform="translate(119,413)"/>
<path d="M0 0 C0 3.39 -0.52 4.06 -2.5 6.68 C-2.96 7.31 -3.42 7.93 -3.90 8.57 C-4.26 9.04 -4.62 9.51 -5 10 C-5.64 8.16 -5.64 8.16 -6 6 C-3.62 3.31 -3.62 3.31 -1 1 C-0.67 0.67 -0.34 0.34 0 0 Z " fill="#161616" transform="translate(183,261)"/>
<path d="M0 0 C-5.27 3.22 -5.27 3.22 -7 4 C-7.66 3.67 -8.32 3.34 -9 3 C-5.83 -0.30 -4.50 -1.35 0 0 Z " fill="#181818" transform="translate(780,665)"/>
<path d="M0 0 C2.25 0.25 2.25 0.25 4 1 C1.68 3.06 1.68 3.06 -1 5 C-1.99 4.67 -2.98 4.34 -4 4 C-2.25 1.93 -2.25 1.93 0 0 Z " fill="#191A19" transform="translate(297,650)"/>
<path d="M0 0 C3.16 1.36 3.99 1.98 6 5 C5.67 5.99 5.34 6.98 5 8 C0 2.25 0 2.25 0 0 Z " fill="#181818" transform="translate(968,507)"/>
<path d="M0 0 C6.27 0 12.54 0 19 0 C19 0.33 19 0.66 19 1 C12.73 1 6.46 1 0 1 C0 0.67 0 0.34 0 0 Z " fill="#403E3E" transform="translate(627,479)"/>
<path d="M0 0 C0.66 0.33 1.32 0.66 2 1 C-0.97 4.96 -0.97 4.96 -4 9 C-4.33 8.01 -4.66 7.02 -5 6 C-3.59 3.73 -1.80 1.97 0 0 Z " fill="#151515" transform="translate(111,426)"/>
<path d="M0 0 C3.42 1.14 4.24 1.92 6 5 C5.57 7.13 5.57 7.13 5 9 C4.16 7.87 3.32 6.75 2.5 5.62 C2.03 4.99 1.57 4.37 1.09 3.72 C0 2 0 2 0 0 Z " fill="#161616" transform="translate(897,342)"/>
<path d="M0 0 C0 3.99 -1.72 5.80 -4 9 C-4.81 7.31 -4.81 7.31 -5 5 C-2.56 2.25 -2.56 2.25 0 0 Z " fill="#181818" transform="translate(779,315)"/>
<path d="M0 0 C0.33 0.66 0.66 1.32 1 2 C-0.65 3.98 -2.3 5.96 -4 8 C-4.33 7.01 -4.66 6.02 -5 5 C-3.35 3.35 -1.7 1.7 0 0 Z " fill="#171716" transform="translate(787,304)"/>
<path d="M0 0 C0.99 0 1.98 0 3 0 C5.56 3.85 4.83 5.58 4 10 C3.67 10 3.34 10 3 10 C2.51 7.98 2.02 5.96 1.53 3.94 C1.05 1.94 1.05 1.94 0 0 Z " fill="#171617" transform="translate(883,752)"/>
<path d="M0 0 C-1 3 -1 3 -2.81 4.25 C-5.33 5.11 -6.52 4.88 -9 4 C-2.25 0 -2.25 0 0 0 Z " fill="#171616" transform="translate(342,729)"/>
<path d="M0 0 C0.33 0.99 0.66 1.98 1 3 C-0.32 4.32 -1.64 5.64 -3 7 C-3.99 6.67 -4.98 6.34 -6 6 C-4.02 4.02 -2.04 2.04 0 0 Z " fill="#131313" transform="translate(746,725)"/>
<path d="M0 0 C5.75 1.62 5.75 1.62 8 5 C4.33 4.50 2.33 3.94 0 1 C0 0.67 0 0.34 0 0 Z " fill="#191918" transform="translate(675,694)"/>
<path d="M0 0 C-5.27 3.22 -5.27 3.22 -7 4 C-7.66 3.67 -8.32 3.34 -9 3 C-5.83 -0.30 -4.50 -1.35 0 0 Z " fill="#181818" transform="translate(758,677)"/>
<path d="M0 0 C5.94 0 11.88 0 18 0 C18 0.33 18 0.66 18 1 C12.06 1 6.12 1 0 1 C0 0.67 0 0.34 0 0 Z " fill="#3E3D3C" transform="translate(648,479)"/>
<path d="M0 0 C5.94 0 11.88 0 18 0 C18 0.33 18 0.66 18 1 C12.06 1 6.12 1 0 1 C0 0.67 0 0.34 0 0 Z " fill="#3E3D3D" transform="translate(336,479)"/>
<path d="M0 0 C0.99 0.33 1.98 0.66 3 1 C1.79 3.49 0.54 5.68 -1 8 C-1.04 5.66 -1.04 3.33 -1 1 C-0.67 0.67 -0.34 0.34 0 0 Z " fill="#141514" transform="translate(89,392)"/>
<path d="M0 0 C2.95 1.37 5.44 2.98 8 5 C3.48 5.36 3.48 5.36 1.18 3.62 C0 2 0 2 0 0 Z " fill="#151516" transform="translate(289,726)"/>
<path d="M0 0 C3.08 1.19 6.06 2.47 9 4 C8.01 4.49 8.01 4.49 7 5 C4.64 4.06 2.30 3.06 0 2 C0 1.34 0 0.68 0 0 Z " fill="#272727" transform="translate(693,673)"/>
<path d="M0 0 C2.87 0.25 2.87 0.25 6 1 C7.37 3.06 7.37 3.06 8 5 C4.62 3.81 2.35 2.72 0 0 Z " fill="#292828" transform="translate(634,671)"/>
<path d="M0 0 C1.87 0.25 1.87 0.25 4 1 C5.12 3 5.12 3 6 5 C6.66 5.33 7.32 5.66 8 6 C4.74 5.65 3.98 4.97 1.75 2.43 C1.17 1.63 0.59 0.82 0 0 Z " fill="#151515" transform="translate(344,656)"/>
<path d="M0 0 C2.25 0.25 2.25 0.25 4 1 C2.02 2.32 0.04 3.64 -2 5 C-2.66 4.67 -3.32 4.34 -4 4 C-2.25 1.93 -2.25 1.93 0 0 Z " fill="#282828" transform="translate(440,639)"/>
<path d="M0 0 C3.71 0.50 6.73 1.11 10 3 C8.72 3.06 7.44 3.12 6.12 3.18 C5.40 3.22 4.68 3.25 3.94 3.29 C3.30 3.19 2.66 3.09 2 3 C1.34 2.01 0.68 1.02 0 0 Z " fill="#131314" transform="translate(496,633)"/>
<path d="M0 0 C0.33 1.32 0.66 2.64 1 4 C-0.98 5.32 -2.96 6.64 -5 8 C-3.62 5.04 -2.01 2.55 0 0 Z " fill="#2A2A2A" transform="translate(476,556)"/>
<path d="M0 0 C0.99 0.33 1.98 0.66 3 1 C2.67 3.31 2.34 5.62 2 8 C1.34 7.34 0.68 6.68 0 6 C0 4.68 0 3.36 0 2 C-0.66 1.67 -1.32 1.34 -2 1 C-1.34 0.67 -0.68 0.34 0 0 Z " fill="#292929" transform="translate(173,542)"/>
<path d="M0 0 C3.68 0.49 5.60 1.10 8 4 C7.01 4.49 7.01 4.49 6 5 C3.98 3.69 1.98 2.36 0 1 C0 0.67 0 0.34 0 0 Z " fill="#191818" transform="translate(136,464)"/>
<path d="M0 0 C2.5 2.31 2.5 2.31 5 5 C5 5.99 5 6.98 5 8 C2.5 5.68 2.5 5.68 0 3 C0 2.01 0 1.02 0 0 Z " fill="#161716" transform="translate(733,395)"/>
<path d="M0 0 C3.3 0 6.6 0 10 0 C10 0.33 10 0.66 10 1 C9.06 1.19 9.06 1.19 8.10 1.40 C6.87 1.66 6.87 1.66 5.62 1.93 C4.81 2.11 4.00 2.28 3.16 2.46 C0.97 2.92 0.97 2.92 -1 4 C-0.67 2.68 -0.34 1.36 0 0 Z " fill="#323232" transform="translate(428,364)"/>
<path d="M0 0 C1.32 0.33 2.64 0.66 4 1 C1.03 3.47 1.03 3.47 -2 6 C-2.66 5.67 -3.32 5.34 -4 5 C-2.68 3.35 -1.36 1.7 0 0 Z " fill="#161615" transform="translate(537,352)"/>
<path d="M0 0 C0.66 0.33 1.32 0.66 2 1 C-0.47 4.46 -0.47 4.46 -3 8 C-3.33 7.01 -3.66 6.02 -4 5 C-2.06 2.31 -2.06 2.31 0 0 Z " fill="#141514" transform="translate(377,339)"/>
<path d="M0 0 C0.33 0.66 0.66 1.32 1 2 C0.34 2 -0.32 2 -1 2 C-1.28 2.80 -1.57 3.60 -1.87 4.43 C-3 7 -3 7 -5 8 C-4.64 4.75 -4.43 3.38 -1.93 1.18 C-1.29 0.79 -0.65 0.40 0 0 Z " fill="#161616" transform="translate(145,315)"/>
<path d="M0 0 C-2.91 1.98 -4.12 1.98 -7.75 1.62 C-8.82 1.41 -9.89 1.21 -11 1 C-7.22 -1.56 -4.32 -0.83 0 0 Z " fill="#2F2E2E" transform="translate(200,254)"/>
<path d="M0 0 C4.29 0 8.58 0 13 0 C13 0.33 13 0.66 13 1 C8.71 1 4.42 1 0 1 C0 0.67 0 0.34 0 0 Z " fill="#3D3B3B" transform="translate(683,479)"/>
<path d="M0 0 C0.33 0 0.66 0 1 0 C1 3.96 1 7.92 1 12 C0.67 12 0.34 12 0 12 C0 8.04 0 4.08 0 0 Z " fill="#3A3939" transform="translate(521,282)"/>
<path d="M0 0 C3.63 0 7.26 0 11 0 C11 0.33 11 0.66 11 1 C7.37 1 3.74 1 0 1 C0 0.67 0 0.34 0 0 Z " fill="#403E3E" transform="translate(403,479)"/>
<path d="M0 0 C3.3 0 6.6 0 10 0 C10 0.33 10 0.66 10 1 C6.7 1 3.4 1 0 1 C0 0.67 0 0.34 0 0 Z " fill="#3F3E3D" transform="translate(416,479)"/>
<path d="M0 0 C2.97 0 5.94 0 9 0 C9 0.33 9 0.66 9 1 C6.03 1 3.06 1 0 1 C0 0.67 0 0.34 0 0 Z " fill="#3F3E3F" transform="translate(80,543)"/>
<path d="M0 0 C0.33 0 0.66 0 1 0 C1 2.97 1 5.94 1 9 C0.67 9 0.34 9 0 9 C0 6.03 0 3.06 0 0 Z " fill="#3D3C3C" transform="translate(521,504)"/>
<path d="M0 0 C0.33 0 0.66 0 1 0 C1 2.97 1 5.94 1 9 C0.67 9 0.34 9 0 9 C0 6.03 0 3.06 0 0 Z " fill="#3C3B3B" transform="translate(521,471)"/>
<path d="M0 0 C0.33 0 0.66 0 1 0 C1 2.97 1 5.94 1 9 C0.67 9 0.34 9 0 9 C0 6.03 0 3.06 0 0 Z " fill="#393939" transform="translate(521,252)"/>
<path d="M0 0 C2.64 0 5.28 0 8 0 C8 0.33 8 0.66 8 1 C5.36 1 2.72 1 0 1 C0 0.67 0 0.34 0 0 Z " fill="#3F3E3E" transform="translate(112,543)"/>
<path d="M0 0 C1.98 0 3.96 0 6 0 C5.67 0.66 5.34 1.32 5 2 C3.35 2 1.7 2 0 2 C0 1.34 0 0.68 0 0 Z " fill="#3B3939" transform="translate(431,366)"/>
<path d="M0 0 C0.33 1.32 0.66 2.64 1 4 C0.01 4 -0.98 4 -2 4 C-1.34 2.68 -0.68 1.36 0 0 Z " fill="#3A3A3A" transform="translate(562,328)"/>
<path d="M0 0 C0.66 0 1.32 0 2 0 C2 1.98 2 3.96 2 6 C0 3 0 3 0 0 Z " fill="#3C3B3A" transform="translate(520,328)"/>
<path d="M0 0 C1.32 0.33 2.64 0.66 4 1 C2.02 1.99 2.02 1.99 0 3 C0 2.01 0 1.02 0 0 Z " fill="#3C3B3B" transform="translate(680,701)"/>
<path d="M0 0 C2.31 0 4.62 0 7 0 C7 0.33 7 0.66 7 1 C4.69 1 2.38 1 0 1 C0 0.67 0 0.34 0 0 Z " fill="#3E3C3D" transform="translate(760,543)"/>
<path d="M0 0 C2.31 0 4.62 0 7 0 C7 0.33 7 0.66 7 1 C4.69 1 2.38 1 0 1 C0 0.67 0 0.34 0 0 Z " fill="#403F3F" transform="translate(736,543)"/>
<path d="M0 0 C2.31 0 4.62 0 7 0 C7 0.33 7 0.66 7 1 C4.69 1 2.38 1 0 1 C0 0.67 0 0.34 0 0 Z " fill="#403E3E" transform="translate(720,543)"/>
<path d="M0 0 C2.31 0 4.62 0 7 0 C7 0.33 7 0.66 7 1 C4.69 1 2.38 1 0 1 C0 0.67 0 0.34 0 0 Z " fill="#3D3C3C" transform="translate(136,543)"/>
<path d="M0 0 C2.31 0 4.62 0 7 0 C7 0.33 7 0.66 7 1 C4.69 1 2.38 1 0 1 C0 0.67 0 0.34 0 0 Z " fill="#403F3F" transform="translate(96,543)"/>
<path d="M0 0 C0.33 0 0.66 0 1 0 C1 2.31 1 4.62 1 7 C0.67 7 0.34 7 0 7 C0 4.69 0 2.38 0 0 Z " fill="#3D3C3C" transform="translate(521,495)"/>
<path d="M0 0 C2.31 0 4.62 0 7 0 C7 0.33 7 0.66 7 1 C4.69 1 2.38 1 0 1 C0 0.67 0 0.34 0 0 Z " fill="#3C3B3B" transform="translate(328,479)"/>
<path d="M0 0 C1.98 0.99 1.98 0.99 4 2 C3.01 2.33 2.02 2.66 1 3 C0.67 2.01 0.34 1.02 0 0 Z " fill="#3C3A3A" transform="translate(881,421)"/>
<path d="M0 0 C1.98 0 3.96 0 6 0 C6 0.33 6 0.66 6 1 C4.02 1 2.04 1 0 1 C0 0.67 0 0.34 0 0 Z " fill="#393938" transform="translate(190,584)"/>
<path d="M0 0 C1.98 0 3.96 0 6 0 C6 0.33 6 0.66 6 1 C4.02 1 2.04 1 0 1 C0 0.67 0 0.34 0 0 Z " fill="#403E3E" transform="translate(880,543)"/>
<path d="M0 0 C0.33 0 0.66 0 1 0 C1 1.98 1 3.96 1 6 C0.67 6 0.34 6 0 6 C0 4.02 0 2.04 0 0 Z " fill="#3A3A3A" transform="translate(535,534)"/>
<path d="M0 0 C1.98 0 3.96 0 6 0 C6 0.33 6 0.66 6 1 C4.02 1 2.04 1 0 1 C0 0.67 0 0.34 0 0 Z " fill="#3F3E3E" transform="translate(620,479)"/>
<path d="M0 0 C0.33 0 0.66 0 1 0 C1 1.98 1 3.96 1 6 C0.67 6 0.34 6 0 6 C0 4.02 0 2.04 0 0 Z " fill="#393839" transform="translate(204,441)"/>
<path d="M0 0 C0.33 0 0.66 0 1 0 C1 1.98 1 3.96 1 6 C0.67 6 0.34 6 0 6 C0 4.02 0 2.04 0 0 Z " fill="#3C3C3C" transform="translate(521,434)"/>
<path d="M0 0 C0.33 1.32 0.66 2.64 1 4 C0.34 3.34 -0.32 2.68 -1 2 C-0.67 1.34 -0.34 0.68 0 0 Z " fill="#3F3F3E" transform="translate(674,523)"/>
<path d="M0 0 C1.65 0 3.3 0 5 0 C5 0.33 5 0.66 5 1 C3.35 1 1.7 1 0 1 C0 0.67 0 0.34 0 0 Z " fill="#3E3C3C" transform="translate(540,479)"/>
<path d="M0 0 C1.65 0 3.3 0 5 0 C5 0.33 5 0.66 5 1 C3.35 1 1.7 1 0 1 C0 0.67 0 0.34 0 0 Z " fill="#3D3B3B" transform="translate(483,479)"/>
<path d="M0 0 C1.65 0 3.3 0 5 0 C5 0.33 5 0.66 5 1 C3.35 1 1.7 1 0 1 C0 0.67 0 0.34 0 0 Z " fill="#403F3F" transform="translate(452,479)"/>
<path d="M0 0 C0.99 0.33 1.98 0.66 3 1 C2.01 1.33 1.02 1.66 0 2 C0 1.34 0 0.68 0 0 Z " fill="#393838" transform="translate(147,446)"/>
<path d="M0 0 C0.33 0 0.66 0 1 0 C1 1.65 1 3.3 1 5 C0.67 5 0.34 5 0 5 C0 3.35 0 1.7 0 0 Z " fill="#383738" transform="translate(204,424)"/>
<path d="M0 0 C1.48 0.99 1.48 0.99 3 2 C2.01 2 1.02 2 0 2 C0 1.34 0 0.68 0 0 Z " fill="#363636" transform="translate(506,245)"/>
<path d="M0 0 C0.66 0 1.32 0 2 0 C2 0.66 2 1.32 2 2 C1.34 2 0.68 2 0 2 C0 1.34 0 0.68 0 0 Z " fill="#3B3C3C" transform="translate(820,693)"/>
<path d="M0 0 C0.66 0 1.32 0 2 0 C1.67 0.99 1.34 1.98 1 3 C0.67 2.01 0.34 1.02 0 0 Z " fill="#3B3B3C" transform="translate(664,691)"/>
<path d="M0 0 C4 1 4 1 4 1 Z " fill="#3C3B3A" transform="translate(160,669)"/>
<path d="M0 0 C0.99 0.49 0.99 0.49 2 1 C1.34 1.66 0.68 2.32 0 3 C0 2.01 0 1.02 0 0 Z " fill="#3D3B3B" transform="translate(400,625)"/>
<path d="M0 0 C4 1 4 1 4 1 Z " fill="#3A3B3A" transform="translate(198,584)"/>
<path d="M0 0 C4 1 4 1 4 1 Z " fill="#3F3E3E" transform="translate(891,543)"/>
<path d="M0 0 C1 4 1 4 1 4 Z " fill="#393A3A" transform="translate(535,499)"/>
<path d="M0 0 C1 4 1 4 1 4 Z " fill="#3D3C3C" transform="translate(488,496)"/>
<path d="M0 0 C1 4 1 4 1 4 Z " fill="#3B3C3B" transform="translate(535,491)"/>
<path d="M0 0 C1 4 1 4 1 4 Z " fill="#3D3C3B" transform="translate(521,490)"/>
<path d="M0 0 C1 4 1 4 1 4 Z " fill="#3D3C3D" transform="translate(488,488)"/>
<path d="M0 0 C1 4 1 4 1 4 Z " fill="#393939" transform="translate(204,481)"/>
<path d="M0 0 C0 3 0 3 0 3 Z " fill="#3A3A3A" transform="translate(177,468)"/>
<path d="M0 0 C1 4 1 4 1 4 Z " fill="#3E3C3C" transform="translate(521,450)"/>
<path d="M0 0 C0.99 1.48 0.99 1.48 2 3 C1.34 3 0.68 3 0 3 C0 2.01 0 1.02 0 0 Z " fill="#3E3C3E" transform="translate(752,346)"/>
<path d="M0 0 C0.99 0.33 1.98 0.66 3 1 C2.01 1.33 1.02 1.66 0 2 C0 1.34 0 0.68 0 0 Z " fill="#3E3D3D" transform="translate(804,272)"/>
<path d="M0 0 C0.66 0.66 1.32 1.32 2 2 C1.34 2 0.68 2 0 2 C0 1.34 0 0.68 0 0 Z " fill="#383738" transform="translate(696,730)"/>
<path d="M0 0 C3 1 3 1 3 1 Z " fill="#3D3C3C" transform="translate(835,694)"/>
<path d="M0 0 C0.99 0.49 0.99 0.49 2 1 C1.01 1.49 1.01 1.49 0 2 C0 1.34 0 0.68 0 0 Z " fill="#3B3C3B" transform="translate(654,685)"/>
<path d="M0 0 C0.33 0.66 0.66 1.32 1 2 C0.34 1.67 -0.32 1.34 -1 1 C-0.67 0.67 -0.34 0.34 0 0 Z " fill="#3C3B3B" transform="translate(265,684)"/>
<path d="M0 0 C0.66 0.66 1.32 1.32 2 2 C1.34 2 0.68 2 0 2 C0 1.34 0 0.68 0 0 Z " fill="#3B3A39" transform="translate(160,666)"/>
<path d="M0 0 C0.66 0 1.32 0 2 0 C1.67 0.66 1.34 1.32 1 2 C0.67 1.34 0.34 0.68 0 0 Z " fill="#3C3A3C" transform="translate(586,645)"/>
<path d="M0 0 C0.66 0.66 1.32 1.32 2 2 C1.34 2 0.68 2 0 2 C0 1.34 0 0.68 0 0 Z " fill="#3A3A3A" transform="translate(561,630)"/>
<path d="M0 0 C0.33 0.66 0.66 1.32 1 2 C0.34 1.67 -0.32 1.34 -1 1 C-0.67 0.67 -0.34 0.34 0 0 Z " fill="#3B3B3B" transform="translate(481,628)"/>
<path d="M0 0 C3 1 3 1 3 1 Z " fill="#3F3E3F" transform="translate(275,543)"/>
<path d="M0 0 C3 1 3 1 3 1 Z " fill="#3E3D3D" transform="translate(244,543)"/>
<path d="M0 0 C3 1 3 1 3 1 Z " fill="#3F3D3E" transform="translate(108,543)"/>
<path d="M0 0 C3 1 3 1 3 1 Z " fill="#3C3B3C" transform="translate(699,479)"/>
<path d="M0 0 C0.66 0 1.32 0 2 0 C1.67 0.66 1.34 1.32 1 2 C0.67 1.34 0.34 0.68 0 0 Z " fill="#3A3A39" transform="translate(845,464)"/>
<path d="M0 0 C0.66 0 1.32 0 2 0 C1.67 0.66 1.34 1.32 1 2 C0.67 1.34 0.34 0.68 0 0 Z " fill="#3D3C3C" transform="translate(760,464)"/>
<path d="M0 0 C0.33 0.66 0.66 1.32 1 2 C0.34 1.67 -0.32 1.34 -1 1 C-0.67 0.67 -0.34 0.34 0 0 Z " fill="#393939" transform="translate(170,462)"/>
<path d="M0 0 C3 1 3 1 3 1 Z " fill="#3B3C3A" transform="translate(497,433)"/>
<path d="M0 0 C0.66 0.66 1.32 1.32 2 2 C1.34 2 0.68 2 0 2 C0 1.34 0 0.68 0 0 Z " fill="#393939" transform="translate(748,421)"/>
<path d="M0 0 C0.66 0.66 1.32 1.32 2 2 C1.34 2 0.68 2 0 2 C0 1.34 0 0.68 0 0 Z " fill="#3B3A38" transform="translate(459,382)"/>
<path d="M0 0 C0.99 0.49 0.99 0.49 2 1 C1.01 1.49 1.01 1.49 0 2 C0 1.34 0 0.68 0 0 Z " fill="#383837" transform="translate(593,306)"/>
<path d="M0 0 C0.99 0.49 0.99 0.49 2 1 C1.01 1.49 1.01 1.49 0 2 C0 1.34 0 0.68 0 0 Z " fill="#3C3A3A" transform="translate(378,249)"/>
<path d="M0 0 C0.33 0.66 0.66 1.32 1 2 C0.34 1.67 -0.32 1.34 -1 1 C-0.67 0.67 -0.34 0.34 0 0 Z " fill="#3B3A39" transform="translate(582,160)"/>
<path d="M0 0 C2 1 2 1 2 1 Z " fill="#3F3E3C" transform="translate(758,745)"/>
<path d="M0 0 C2 1 2 1 2 1 Z " fill="#3A3A39" transform="translate(293,735)"/>
<path d="M0 0 C2 1 2 1 2 1 Z " fill="#3A3838" transform="translate(340,733)"/>
<path d="M0 0 C2 1 2 1 2 1 Z " fill="#3E3C3D" transform="translate(648,683)"/>
<path d="M0 0 C2 1 2 1 2 1 Z " fill="#3A3B3B" transform="translate(181,679)"/>
<path d="M0 0 C2 1 2 1 2 1 Z " fill="#3A3A39" transform="translate(733,672)"/>
<path d="M0 0 C2 1 2 1 2 1 Z " fill="#3D3B3C" transform="translate(629,671)"/>
<path d="M0 0 C2 1 2 1 2 1 Z " fill="#373737" transform="translate(278,656)"/>
<path d="M0 0 C2 1 2 1 2 1 Z " fill="#39393B" transform="translate(367,648)"/>
<path d="M0 0 C2 1 2 1 2 1 Z " fill="#3A393A" transform="translate(251,640)"/>
<path d="M0 0 C2 1 2 1 2 1 Z " fill="#3D3D3B" transform="translate(521,638)"/>
<path d="M0 0 C2 1 2 1 2 1 Z " fill="#3C3B3A" transform="translate(503,638)"/>
<path d="M0 0 C2 1 2 1 2 1 Z " fill="#3C3A3B" transform="translate(498,637)"/>
<path d="M0 0 C2 1 2 1 2 1 Z " fill="#3A3A39" transform="translate(557,628)"/>
<path d="M0 0 C2 1 2 1 2 1 Z " fill="#3B3B3C" transform="translate(552,625)"/>
<path d="M0 0 C2 1 2 1 2 1 Z " fill="#3D3C3C" transform="translate(408,624)"/>
<path d="M0 0 C2 1 2 1 2 1 Z " fill="#3A3938" transform="translate(819,612)"/>
<path d="M0 0 C2 1 2 1 2 1 Z " fill="#3B3C3B" transform="translate(167,592)"/>
<path d="M0 0 C2 1 2 1 2 1 Z " fill="#393838" transform="translate(185,585)"/>
<path d="M0 0 C2 1 2 1 2 1 Z " fill="#3F3E3F" transform="translate(932,543)"/>
<path d="M0 0 C2 1 2 1 2 1 Z " fill="#3E3D3D" transform="translate(904,543)"/>
<path d="M0 0 C2 1 2 1 2 1 Z " fill="#403E3F" transform="translate(900,543)"/>
<path d="M0 0 C2 1 2 1 2 1 Z " fill="#3F3E3E" transform="translate(888,543)"/>
<path d="M0 0 C2 1 2 1 2 1 Z " fill="#3D3C3C" transform="translate(788,543)"/>
<path d="M0 0 C2 1 2 1 2 1 Z " fill="#3E3E3E" transform="translate(783,543)"/>
<path d="M0 0 C2 1 2 1 2 1 Z " fill="#40403F" transform="translate(773,543)"/>
<path d="M0 0 C2 1 2 1 2 1 Z " fill="#40403E" transform="translate(768,543)"/>
<path d="M0 0 C2 1 2 1 2 1 Z " fill="#3E3F3E" transform="translate(752,543)"/>
<path d="M0 0 C2 1 2 1 2 1 Z " fill="#404040" transform="translate(704,543)"/>
<path d="M0 0 C2 1 2 1 2 1 Z " fill="#404040" transform="translate(320,543)"/>
<path d="M0 0 C2 1 2 1 2 1 Z " fill="#3E3E3E" transform="translate(304,543)"/>
<path d="M0 0 C2 1 2 1 2 1 Z " fill="#3F3D3F" transform="translate(300,543)"/>
<path d="M0 0 C2 1 2 1 2 1 Z " fill="#403F40" transform="translate(284,543)"/>
<path d="M0 0 C2 1 2 1 2 1 Z " fill="#3F3F3E" transform="translate(280,543)"/>
<path d="M0 0 C2 1 2 1 2 1 Z " fill="#3E3E3F" transform="translate(272,543)"/>
<path d="M0 0 C2 1 2 1 2 1 Z " fill="#3D3D3E" transform="translate(261,543)"/>
<path d="M0 0 C2 1 2 1 2 1 Z " fill="#3D3C3C" transform="translate(236,543)"/>
<path d="M0 0 C2 1 2 1 2 1 Z " fill="#3C3B3A" transform="translate(223,543)"/>
<path d="M0 0 C2 1 2 1 2 1 Z " fill="#3D3B3B" transform="translate(220,543)"/>
<path d="M0 0 C2 1 2 1 2 1 Z " fill="#3F3E3E" transform="translate(128,543)"/>
<path d="M0 0 C2 1 2 1 2 1 Z " fill="#393938" transform="translate(174,488)"/>
<path d="M0 0 C2 1 2 1 2 1 Z " fill="#41403E" transform="translate(318,480)"/>
<path d="M0 0 C2 1 2 1 2 1 Z " fill="#3D3D3C" transform="translate(680,479)"/>
<path d="M0 0 C2 1 2 1 2 1 Z " fill="#3D3D3D" transform="translate(324,479)"/>
<path d="M0 0 C2 1 2 1 2 1 Z " fill="#3B3B3B" transform="translate(857,456)"/>
<path d="M0 0 C2 1 2 1 2 1 Z " fill="#3B3A39" transform="translate(305,435)"/>
<path d="M0 0 C2 1 2 1 2 1 Z " fill="#393838" transform="translate(910,420)"/>
<path d="M0 0 C2 1 2 1 2 1 Z " fill="#3A3838" transform="translate(694,402)"/>
<path d="M0 0 C2 1 2 1 2 1 Z " fill="#3B393B" transform="translate(457,381)"/>
<path d="M0 0 C2 1 2 1 2 1 Z " fill="#3C3B3A" transform="translate(291,377)"/>
<path d="M0 0 C2 1 2 1 2 1 Z " fill="#3B3A39" transform="translate(360,353)"/>
<path d="M0 0 C2 1 2 1 2 1 Z " fill="#383838" transform="translate(555,336)"/>
<path d="M0 0 C2 1 2 1 2 1 Z " fill="#3D3D3D" transform="translate(128,331)"/>
<path d="M0 0 C2 1 2 1 2 1 Z " fill="#3C3A3A" transform="translate(384,324)"/>
</svg>